<svg width="621" height="372" viewBox="0 0 621 372" fill="none" xmlns="http://www.w3.org/2000/svg">
<g clip-path="url(#clip0_195_1566)">
<rect width="621" height="372" rx="10" fill="#3563E9"/>
<path d="M25.2283 317.5L0.393188 250H25.2283H50.0634L74.8985 317.5L50.0634 385H25.2283H0.393188L25.2283 317.5Z" fill="white" fill-opacity="0.06"/>
<path d="M115.628 317.5L90.7928 250H115.628H140.463L165.298 317.5L140.463 385H115.628H90.7928L115.628 317.5Z" fill="white" fill-opacity="0.06"/>
<path d="M206.028 317.5L181.193 250H206.028H230.863L255.698 317.5L230.863 385H206.028H181.193L206.028 317.5Z" fill="white" fill-opacity="0.06"/>
<path d="M296.427 317.5L271.592 250H296.427H321.262L346.098 317.5L321.262 385H296.427H271.592L296.427 317.5Z" fill="white" fill-opacity="0.06"/>
<path d="M386.827 317.5L361.992 250H386.827H411.662L436.497 317.5L411.662 385H386.827H361.992L386.827 317.5Z" fill="white" fill-opacity="0.06"/>
<path d="M477.227 317.5L452.392 250H477.227H502.062L526.897 317.5L502.062 385H477.227H452.392L477.227 317.5Z" fill="white" fill-opacity="0.06"/>
<path d="M567.627 317.5L542.792 250H567.627H592.462L617.297 317.5L592.462 385H567.627H542.792L567.627 317.5Z" fill="white" fill-opacity="0.06"/>
<path d="M-20.4684 182.5L-45.3035 115H-20.4684H4.36672L29.2018 182.5L4.36672 250H-20.4684H-45.3035L-20.4684 182.5Z" fill="white" fill-opacity="0.06"/>
<path d="M69.9314 182.5L45.0963 115H69.9314H94.7665L119.602 182.5L94.7665 250H69.9314H45.0963L69.9314 182.5Z" fill="white" fill-opacity="0.06"/>
<path d="M160.331 182.5L135.496 115H160.331H185.166L210.001 182.5L185.166 250H160.331H135.496L160.331 182.5Z" fill="white" fill-opacity="0.06"/>
<path d="M250.731 182.5L225.896 115H250.731H275.566L300.401 182.5L275.566 250H250.731H225.896L250.731 182.5Z" fill="white" fill-opacity="0.06"/>
<path d="M341.131 182.5L316.296 115H341.131H365.966L390.801 182.5L365.966 250H341.131H316.296L341.131 182.5Z" fill="white" fill-opacity="0.06"/>
<path d="M431.53 182.5L406.695 115H431.53H456.365L481.201 182.5L456.365 250H431.53H406.695L431.53 182.5Z" fill="white" fill-opacity="0.06"/>
<path d="M521.93 182.5L497.095 115H521.93H546.765L571.6 182.5L546.765 250H521.93H497.095L521.93 182.5Z" fill="white" fill-opacity="0.06"/>
<path d="M612.33 182.5L587.495 115H612.33H637.165L662 182.5L637.165 250H612.33H587.495L612.33 182.5Z" fill="white" fill-opacity="0.06"/>
<path d="M24.2349 47.5L-0.60022 -20H24.2349H49.07L73.9051 47.5L49.07 115H24.2349H-0.60022L24.2349 47.5Z" fill="white" fill-opacity="0.06"/>
<path d="M114.635 47.5L89.7994 -20H114.635H139.47L164.305 47.5L139.47 115H114.635H89.7994L114.635 47.5Z" fill="white" fill-opacity="0.06"/>
<path d="M205.034 47.5L180.199 -20H205.034H229.869L254.704 47.5L229.869 115H205.034H180.199L205.034 47.5Z" fill="white" fill-opacity="0.06"/>
<path d="M295.434 47.5L270.599 -20H295.434H320.269L345.104 47.5L320.269 115H295.434H270.599L295.434 47.5Z" fill="white" fill-opacity="0.06"/>
<path d="M385.834 47.5L360.999 -20H385.834H410.669L435.504 47.5L410.669 115H385.834H360.999L385.834 47.5Z" fill="white" fill-opacity="0.06"/>
<path d="M476.234 47.5L451.398 -20H476.234H501.069L525.904 47.5L501.069 115H476.234H451.398L476.234 47.5Z" fill="white" fill-opacity="0.06"/>
<path d="M566.633 47.5L541.798 -20H566.633H591.468L616.303 47.5L591.468 115H566.633H541.798L566.633 47.5Z" fill="white" fill-opacity="0.06"/>
<path d="M34.816 61.384C33.3227 61.384 31.936 61.1067 30.656 60.552C29.376 59.976 28.288 59.1973 27.392 58.216C26.496 57.2347 25.8347 56.104 25.408 54.824L28.608 53.48C29.184 54.952 30.0267 56.0827 31.136 56.872C32.2453 57.6613 33.5253 58.056 34.976 58.056C35.8293 58.056 36.576 57.928 37.216 57.672C37.856 57.3947 38.3467 57.0107 38.688 56.52C39.0507 56.0293 39.232 55.464 39.232 54.824C39.232 53.9493 38.9867 53.256 38.496 52.744C38.0053 52.232 37.28 51.8267 36.32 51.528L31.84 50.12C30.048 49.5653 28.6827 48.7227 27.744 47.592C26.8053 46.44 26.336 45.096 26.336 43.56C26.336 42.216 26.6667 41.0427 27.328 40.04C27.9893 39.016 28.896 38.216 30.048 37.64C31.2213 37.064 32.5547 36.776 34.048 36.776C35.4773 36.776 36.7787 37.032 37.952 37.544C39.1253 38.0347 40.128 38.7173 40.96 39.592C41.8133 40.4667 42.432 41.48 42.816 42.632L39.68 44.008C39.2107 42.7493 38.4747 41.7787 37.472 41.096C36.4907 40.4133 35.3493 40.072 34.048 40.072C33.2587 40.072 32.5653 40.2107 31.968 40.488C31.3707 40.744 30.9013 41.128 30.56 41.64C30.24 42.1307 30.08 42.7067 30.08 43.368C30.08 44.136 30.3253 44.8187 30.816 45.416C31.3067 46.0133 32.0533 46.4613 33.056 46.76L37.216 48.072C39.1147 48.648 40.544 49.48 41.504 50.568C42.464 51.6347 42.944 52.968 42.944 54.568C42.944 55.8907 42.592 57.064 41.888 58.088C41.2053 59.112 40.256 59.9227 39.04 60.52C37.824 61.096 36.416 61.384 34.816 61.384ZM45.8708 67.4V43.688H49.3268V47.272L48.9108 46.44C49.5508 45.4587 50.4041 44.6907 51.4708 44.136C52.5374 43.5813 53.7534 43.304 55.1188 43.304C56.7614 43.304 58.2334 43.6987 59.5348 44.488C60.8574 45.2773 61.8921 46.3547 62.6388 47.72C63.4068 49.0853 63.7908 50.6213 63.7908 52.328C63.7908 54.0347 63.4068 55.5707 62.6388 56.936C61.8921 58.3013 60.8681 59.3893 59.5668 60.2C58.2654 60.9893 56.7828 61.384 55.1188 61.384C53.7748 61.384 52.5481 61.1067 51.4388 60.552C50.3508 59.9973 49.5081 59.1973 48.9108 58.152L49.4868 57.48V67.4H45.8708ZM54.7668 58.024C55.7908 58.024 56.6974 57.7787 57.4868 57.288C58.2761 56.7973 58.8948 56.1253 59.3428 55.272C59.8121 54.3973 60.0468 53.416 60.0468 52.328C60.0468 51.24 59.8121 50.2693 59.3428 49.416C58.8948 48.5627 58.2761 47.8907 57.4868 47.4C56.6974 46.9093 55.7908 46.664 54.7668 46.664C53.7641 46.664 52.8574 46.9093 52.0468 47.4C51.2574 47.8907 50.6281 48.5627 50.1588 49.416C49.7108 50.2693 49.4868 51.24 49.4868 52.328C49.4868 53.416 49.7108 54.3973 50.1588 55.272C50.6281 56.1253 51.2574 56.7973 52.0468 57.288C52.8574 57.7787 53.7641 58.024 54.7668 58.024ZM74.7003 61.384C73.0363 61.384 71.5109 60.9893 70.1243 60.2C68.7589 59.4107 67.6709 58.3333 66.8603 56.968C66.0496 55.6027 65.6443 54.056 65.6443 52.328C65.6443 50.5787 66.0496 49.032 66.8603 47.688C67.6709 46.3227 68.7589 45.256 70.1243 44.488C71.4896 43.6987 73.0149 43.304 74.7003 43.304C76.4069 43.304 77.9323 43.6987 79.2763 44.488C80.6416 45.256 81.7189 46.3227 82.5083 47.688C83.3189 49.032 83.7243 50.5787 83.7243 52.328C83.7243 54.0773 83.3189 55.6347 82.5083 57C81.6976 58.3653 80.6096 59.4427 79.2443 60.232C77.8789 61 76.3643 61.384 74.7003 61.384ZM74.7003 58.024C75.7243 58.024 76.6309 57.7787 77.4203 57.288C78.2096 56.7973 78.8283 56.1253 79.2763 55.272C79.7456 54.3973 79.9803 53.416 79.9803 52.328C79.9803 51.24 79.7456 50.2693 79.2763 49.416C78.8283 48.5627 78.2096 47.8907 77.4203 47.4C76.6309 46.9093 75.7243 46.664 74.7003 46.664C73.6976 46.664 72.7909 46.9093 71.9803 47.4C71.1909 47.8907 70.5616 48.5627 70.0923 49.416C69.6443 50.2693 69.4203 51.24 69.4203 52.328C69.4203 53.416 69.6443 54.3973 70.0923 55.272C70.5616 56.1253 71.1909 56.7973 71.9803 57.288C72.7909 57.7787 73.6976 58.024 74.7003 58.024ZM86.2945 61V43.688H89.7505V47.176L89.4305 46.664C89.8145 45.5333 90.4332 44.7227 91.2865 44.232C92.1398 43.72 93.1638 43.464 94.3585 43.464H95.4145V46.76H93.9105C92.7158 46.76 91.7452 47.1333 90.9985 47.88C90.2732 48.6053 89.9105 49.6507 89.9105 51.016V61H86.2945ZM104.729 61.192C102.915 61.192 101.507 60.68 100.505 59.656C99.5021 58.632 99.0008 57.192 99.0008 55.336V46.952H95.9608V43.688H96.4408C97.2514 43.688 97.8808 43.4533 98.3288 42.984C98.7768 42.5147 99.0008 41.8747 99.0008 41.064V39.72H102.617V43.688H106.553V46.952H102.617V55.176C102.617 55.7733 102.713 56.2853 102.905 56.712C103.097 57.1173 103.406 57.4373 103.833 57.672C104.259 57.8853 104.814 57.992 105.497 57.992C105.667 57.992 105.859 57.9813 106.073 57.96C106.286 57.9387 106.489 57.9173 106.681 57.896V61C106.382 61.0427 106.051 61.0853 105.689 61.128C105.326 61.1707 105.006 61.192 104.729 61.192ZM115.649 61.384C113.879 61.384 112.321 60.9467 110.977 60.072C109.655 59.1973 108.727 58.024 108.193 56.552L110.977 55.24C111.447 56.2213 112.087 57 112.897 57.576C113.729 58.152 114.647 58.44 115.649 58.44C116.503 58.44 117.196 58.248 117.729 57.864C118.263 57.48 118.529 56.9573 118.529 56.296C118.529 55.8693 118.412 55.528 118.177 55.272C117.943 54.9947 117.644 54.7707 117.281 54.6C116.94 54.4293 116.588 54.3013 116.225 54.216L113.505 53.448C112.012 53.0213 110.892 52.3813 110.145 51.528C109.42 50.6533 109.057 49.64 109.057 48.488C109.057 47.4427 109.324 46.536 109.857 45.768C110.391 44.9787 111.127 44.3707 112.065 43.944C113.004 43.5173 114.06 43.304 115.233 43.304C116.812 43.304 118.22 43.6987 119.457 44.488C120.695 45.256 121.569 46.3333 122.081 47.72L119.297 49.032C118.956 48.2 118.412 47.5387 117.665 47.048C116.94 46.5573 116.119 46.312 115.201 46.312C114.412 46.312 113.783 46.504 113.313 46.888C112.844 47.2507 112.609 47.7307 112.609 48.328C112.609 48.7333 112.716 49.0747 112.929 49.352C113.143 49.608 113.42 49.8213 113.761 49.992C114.103 50.1413 114.455 50.2693 114.817 50.376L117.633 51.208C119.063 51.6133 120.161 52.2533 120.929 53.128C121.697 53.9813 122.081 55.0053 122.081 56.2C122.081 57.224 121.804 58.1307 121.249 58.92C120.716 59.688 119.969 60.296 119.009 60.744C118.049 61.1707 116.929 61.384 115.649 61.384ZM137.522 61.384C135.794 61.384 134.258 60.9893 132.914 60.2C131.592 59.3893 130.536 58.3013 129.746 56.936C128.978 55.5707 128.594 54.024 128.594 52.296C128.594 50.5893 128.978 49.0533 129.746 47.688C130.514 46.3227 131.57 45.256 132.914 44.488C134.258 43.6987 135.794 43.304 137.522 43.304C138.696 43.304 139.794 43.5173 140.818 43.944C141.842 44.3493 142.728 44.9147 143.474 45.64C144.242 46.3653 144.808 47.208 145.17 48.168L142.002 49.64C141.64 48.744 141.053 48.0293 140.242 47.496C139.453 46.9413 138.546 46.664 137.522 46.664C136.541 46.664 135.656 46.9093 134.866 47.4C134.098 47.8693 133.49 48.5413 133.042 49.416C132.594 50.2693 132.37 51.24 132.37 52.328C132.37 53.416 132.594 54.3973 133.042 55.272C133.49 56.1253 134.098 56.7973 134.866 57.288C135.656 57.7787 136.541 58.024 137.522 58.024C138.568 58.024 139.474 57.7573 140.242 57.224C141.032 56.6693 141.618 55.9333 142.002 55.016L145.17 56.52C144.829 57.4373 144.274 58.2693 143.506 59.016C142.76 59.7413 141.874 60.3173 140.85 60.744C139.826 61.1707 138.717 61.384 137.522 61.384ZM152.772 61.384C151.599 61.384 150.564 61.1813 149.668 60.776C148.794 60.3493 148.111 59.7733 147.62 59.048C147.13 58.3013 146.884 57.4267 146.884 56.424C146.884 55.4853 147.087 54.6427 147.492 53.896C147.919 53.1493 148.57 52.52 149.444 52.008C150.319 51.496 151.418 51.1333 152.74 50.92L158.756 49.928V52.776L153.444 53.704C152.484 53.8747 151.78 54.184 151.332 54.632C150.884 55.0587 150.66 55.6133 150.66 56.296C150.66 56.9573 150.906 57.5013 151.396 57.928C151.908 58.3333 152.559 58.536 153.348 58.536C154.33 58.536 155.183 58.3227 155.908 57.896C156.655 57.4693 157.231 56.904 157.636 56.2C158.042 55.4747 158.244 54.6747 158.244 53.8V49.352C158.244 48.4987 157.924 47.8053 157.284 47.272C156.666 46.7173 155.834 46.44 154.788 46.44C153.828 46.44 152.986 46.696 152.26 47.208C151.556 47.6987 151.034 48.3387 150.692 49.128L147.684 47.624C148.004 46.7707 148.527 46.024 149.252 45.384C149.978 44.7227 150.82 44.2107 151.78 43.848C152.762 43.4853 153.796 43.304 154.884 43.304C156.25 43.304 157.455 43.56 158.5 44.072C159.567 44.584 160.388 45.2987 160.964 46.216C161.562 47.112 161.86 48.1573 161.86 49.352V61H158.404V57.864L159.14 57.96C158.735 58.664 158.212 59.272 157.572 59.784C156.954 60.296 156.239 60.6907 155.428 60.968C154.639 61.2453 153.754 61.384 152.772 61.384ZM165.128 61V43.688H168.584V47.176L168.264 46.664C168.648 45.5333 169.267 44.7227 170.12 44.232C170.974 43.72 171.998 43.464 173.192 43.464H174.248V46.76H172.744C171.55 46.76 170.579 47.1333 169.832 47.88C169.107 48.6053 168.744 49.6507 168.744 51.016V61H165.128ZM184.588 61L178.636 43.688H182.476L187.02 57.48H185.676L190.316 43.688H193.612L198.22 57.48H196.876L201.452 43.688H205.292L199.308 61H196.044L191.372 46.888H192.556L187.884 61H184.588ZM206.811 61V43.688H210.427V61H206.811ZM206.811 41.32V37.16H210.427V41.32H206.811ZM221.183 61.192C219.369 61.192 217.961 60.68 216.959 59.656C215.956 58.632 215.455 57.192 215.455 55.336V46.952H212.415V43.688H212.895C213.705 43.688 214.335 43.4533 214.783 42.984C215.231 42.5147 215.455 41.8747 215.455 41.064V39.72H219.071V43.688H223.007V46.952H219.071V55.176C219.071 55.7733 219.167 56.2853 219.359 56.712C219.551 57.1173 219.86 57.4373 220.287 57.672C220.713 57.8853 221.268 57.992 221.951 57.992C222.121 57.992 222.313 57.9813 222.527 57.96C222.74 57.9387 222.943 57.9173 223.135 57.896V61C222.836 61.0427 222.505 61.0853 222.143 61.128C221.78 61.1707 221.46 61.192 221.183 61.192ZM225.703 61V36.776H229.319V47.08L228.743 46.632C229.17 45.544 229.853 44.7227 230.791 44.168C231.73 43.592 232.818 43.304 234.055 43.304C235.335 43.304 236.466 43.5813 237.447 44.136C238.429 44.6907 239.197 45.4587 239.751 46.44C240.306 47.4213 240.583 48.5413 240.583 49.8V61H236.999V50.792C236.999 49.9173 236.829 49.1813 236.487 48.584C236.167 47.9653 235.719 47.496 235.143 47.176C234.567 46.8347 233.906 46.664 233.159 46.664C232.434 46.664 231.773 46.8347 231.175 47.176C230.599 47.496 230.141 47.9653 229.799 48.584C229.479 49.2027 229.319 49.9387 229.319 50.792V61H225.703ZM255.615 61.192C253.802 61.192 252.394 60.68 251.391 59.656C250.388 58.632 249.887 57.192 249.887 55.336V46.952H246.847V43.688H247.327C248.138 43.688 248.767 43.4533 249.215 42.984C249.663 42.5147 249.887 41.8747 249.887 41.064V39.72H253.503V43.688H257.439V46.952H253.503V55.176C253.503 55.7733 253.599 56.2853 253.791 56.712C253.983 57.1173 254.292 57.4373 254.719 57.672C255.146 57.8853 255.7 57.992 256.383 57.992C256.554 57.992 256.746 57.9813 256.959 57.96C257.172 57.9387 257.375 57.9173 257.567 57.896V61C257.268 61.0427 256.938 61.0853 256.575 61.128C256.212 61.1707 255.892 61.192 255.615 61.192ZM260.136 61V36.776H263.752V47.08L263.176 46.632C263.602 45.544 264.285 44.7227 265.224 44.168C266.162 43.592 267.25 43.304 268.488 43.304C269.768 43.304 270.898 43.5813 271.88 44.136C272.861 44.6907 273.629 45.4587 274.184 46.44C274.738 47.4213 275.016 48.5413 275.016 49.8V61H271.432V50.792C271.432 49.9173 271.261 49.1813 270.92 48.584C270.6 47.9653 270.152 47.496 269.576 47.176C269 46.8347 268.338 46.664 267.592 46.664C266.866 46.664 266.205 46.8347 265.608 47.176C265.032 47.496 264.573 47.9653 264.232 48.584C263.912 49.2027 263.752 49.9387 263.752 50.792V61H260.136ZM286.054 61.384C284.326 61.384 282.79 60.9893 281.446 60.2C280.123 59.3893 279.088 58.3013 278.342 56.936C277.595 55.5493 277.222 54.0027 277.222 52.296C277.222 50.5467 277.595 49 278.342 47.656C279.11 46.312 280.134 45.256 281.414 44.488C282.694 43.6987 284.144 43.304 285.766 43.304C287.067 43.304 288.23 43.528 289.254 43.976C290.278 44.424 291.142 45.0427 291.846 45.832C292.55 46.6 293.083 47.4853 293.446 48.488C293.83 49.4907 294.022 50.5573 294.022 51.688C294.022 51.9653 294.011 52.2533 293.99 52.552C293.968 52.8507 293.926 53.128 293.862 53.384H280.07V50.504H291.814L290.086 51.816C290.299 50.7707 290.224 49.8427 289.862 49.032C289.52 48.2 288.987 47.5493 288.262 47.08C287.558 46.5893 286.726 46.344 285.766 46.344C284.806 46.344 283.952 46.5893 283.206 47.08C282.459 47.5493 281.883 48.232 281.478 49.128C281.072 50.0027 280.912 51.0693 280.998 52.328C280.891 53.5013 281.051 54.5253 281.478 55.4C281.926 56.2747 282.544 56.9573 283.334 57.448C284.144 57.9387 285.062 58.184 286.086 58.184C287.131 58.184 288.016 57.9493 288.742 57.48C289.488 57.0107 290.075 56.4027 290.502 55.656L293.446 57.096C293.104 57.9067 292.571 58.6427 291.846 59.304C291.142 59.944 290.288 60.456 289.286 60.84C288.304 61.2027 287.227 61.384 286.054 61.384ZM310.472 61.384C309.128 61.384 307.902 61.1067 306.792 60.552C305.704 59.9973 304.862 59.1973 304.264 58.152L304.68 57.48V61H301.224V36.776H304.84V47.272L304.264 46.44C304.904 45.4587 305.758 44.6907 306.824 44.136C307.891 43.5813 309.107 43.304 310.472 43.304C312.115 43.304 313.587 43.6987 314.888 44.488C316.211 45.2773 317.246 46.3547 317.992 47.72C318.76 49.0853 319.144 50.6213 319.144 52.328C319.144 54.0347 318.76 55.5707 317.992 56.936C317.246 58.3013 316.222 59.3893 314.92 60.2C313.619 60.9893 312.136 61.384 310.472 61.384ZM310.12 58.024C311.144 58.024 312.051 57.7787 312.84 57.288C313.63 56.7973 314.248 56.1253 314.696 55.272C315.166 54.3973 315.4 53.416 315.4 52.328C315.4 51.24 315.166 50.2693 314.696 49.416C314.248 48.5627 313.63 47.8907 312.84 47.4C312.051 46.9093 311.144 46.664 310.12 46.664C309.118 46.664 308.211 46.9093 307.4 47.4C306.611 47.8907 305.982 48.5627 305.512 49.416C305.064 50.2693 304.84 51.24 304.84 52.328C304.84 53.416 305.064 54.3973 305.512 55.272C305.982 56.1253 306.611 56.7973 307.4 57.288C308.211 57.7787 309.118 58.024 310.12 58.024ZM329.83 61.384C328.102 61.384 326.566 60.9893 325.222 60.2C323.899 59.3893 322.865 58.3013 322.118 56.936C321.371 55.5493 320.998 54.0027 320.998 52.296C320.998 50.5467 321.371 49 322.118 47.656C322.886 46.312 323.91 45.256 325.19 44.488C326.47 43.6987 327.921 43.304 329.542 43.304C330.843 43.304 332.006 43.528 333.03 43.976C334.054 44.424 334.918 45.0427 335.622 45.832C336.326 46.6 336.859 47.4853 337.222 48.488C337.606 49.4907 337.798 50.5573 337.798 51.688C337.798 51.9653 337.787 52.2533 337.766 52.552C337.745 52.8507 337.702 53.128 337.638 53.384H323.846V50.504H335.59L333.862 51.816C334.075 50.7707 334.001 49.8427 333.638 49.032C333.297 48.2 332.763 47.5493 332.038 47.08C331.334 46.5893 330.502 46.344 329.542 46.344C328.582 46.344 327.729 46.5893 326.982 47.08C326.235 47.5493 325.659 48.232 325.254 49.128C324.849 50.0027 324.689 51.0693 324.774 52.328C324.667 53.5013 324.827 54.5253 325.254 55.4C325.702 56.2747 326.321 56.9573 327.11 57.448C327.921 57.9387 328.838 58.184 329.862 58.184C330.907 58.184 331.793 57.9493 332.518 57.48C333.265 57.0107 333.851 56.4027 334.278 55.656L337.222 57.096C336.881 57.9067 336.347 58.6427 335.622 59.304C334.918 59.944 334.065 60.456 333.062 60.84C332.081 61.2027 331.003 61.384 329.83 61.384ZM346.767 61.384C344.996 61.384 343.439 60.9467 342.095 60.072C340.772 59.1973 339.844 58.024 339.311 56.552L342.095 55.24C342.564 56.2213 343.204 57 344.015 57.576C344.847 58.152 345.764 58.44 346.767 58.44C347.62 58.44 348.314 58.248 348.847 57.864C349.38 57.48 349.647 56.9573 349.647 56.296C349.647 55.8693 349.53 55.528 349.295 55.272C349.06 54.9947 348.762 54.7707 348.399 54.6C348.058 54.4293 347.706 54.3013 347.343 54.216L344.623 53.448C343.13 53.0213 342.01 52.3813 341.263 51.528C340.538 50.6533 340.175 49.64 340.175 48.488C340.175 47.4427 340.442 46.536 340.975 45.768C341.508 44.9787 342.244 44.3707 343.183 43.944C344.122 43.5173 345.178 43.304 346.351 43.304C347.93 43.304 349.338 43.6987 350.575 44.488C351.812 45.256 352.687 46.3333 353.199 47.72L350.415 49.032C350.074 48.2 349.53 47.5387 348.783 47.048C348.058 46.5573 347.236 46.312 346.319 46.312C345.53 46.312 344.9 46.504 344.431 46.888C343.962 47.2507 343.727 47.7307 343.727 48.328C343.727 48.7333 343.834 49.0747 344.047 49.352C344.26 49.608 344.538 49.8213 344.879 49.992C345.22 50.1413 345.572 50.2693 345.935 50.376L348.751 51.208C350.18 51.6133 351.279 52.2533 352.047 53.128C352.815 53.9813 353.199 55.0053 353.199 56.2C353.199 57.224 352.922 58.1307 352.367 58.92C351.834 59.688 351.087 60.296 350.127 60.744C349.167 61.1707 348.047 61.384 346.767 61.384ZM363.27 61.192C361.457 61.192 360.049 60.68 359.046 59.656C358.043 58.632 357.542 57.192 357.542 55.336V46.952H354.502V43.688H354.982C355.793 43.688 356.422 43.4533 356.87 42.984C357.318 42.5147 357.542 41.8747 357.542 41.064V39.72H361.158V43.688H365.094V46.952H361.158V55.176C361.158 55.7733 361.254 56.2853 361.446 56.712C361.638 57.1173 361.947 57.4373 362.374 57.672C362.801 57.8853 363.355 57.992 364.038 57.992C364.209 57.992 364.401 57.9813 364.614 57.96C364.827 57.9387 365.03 57.9173 365.222 57.896V61C364.923 61.0427 364.593 61.0853 364.23 61.128C363.867 61.1707 363.547 61.192 363.27 61.192ZM34.112 109.384C32.448 109.384 30.9547 108.989 29.632 108.2C28.3307 107.389 27.296 106.301 26.528 104.936C25.7813 103.571 25.408 102.035 25.408 100.328C25.408 98.6213 25.792 97.0853 26.56 95.72C27.328 94.3547 28.3627 93.2773 29.664 92.488C30.9653 91.6987 32.4373 91.304 34.08 91.304C35.4667 91.304 36.6933 91.5813 37.76 92.136C38.8267 92.6907 39.6693 93.4587 40.288 94.44L39.744 95.272V84.776H43.328V109H39.904V105.48L40.32 106.152C39.7227 107.197 38.8693 107.997 37.76 108.552C36.6507 109.107 35.4347 109.384 34.112 109.384ZM34.464 106.024C35.4667 106.024 36.3627 105.779 37.152 105.288C37.9627 104.797 38.592 104.125 39.04 103.272C39.5093 102.397 39.744 101.416 39.744 100.328C39.744 99.24 39.5093 98.2693 39.04 97.416C38.592 96.5627 37.9627 95.8907 37.152 95.4C36.3627 94.9093 35.4667 94.664 34.464 94.664C33.4613 94.664 32.5547 94.9093 31.744 95.4C30.9333 95.8907 30.304 96.5627 29.856 97.416C29.408 98.2693 29.184 99.24 29.184 100.328C29.184 101.416 29.408 102.397 29.856 103.272C30.304 104.125 30.9227 104.797 31.712 105.288C32.5227 105.779 33.44 106.024 34.464 106.024ZM54.7175 109.384C52.9895 109.384 51.4535 108.989 50.1095 108.2C48.7868 107.389 47.7522 106.301 47.0055 104.936C46.2588 103.549 45.8855 102.003 45.8855 100.296C45.8855 98.5467 46.2588 97 47.0055 95.656C47.7735 94.312 48.7975 93.256 50.0775 92.488C51.3575 91.6987 52.8082 91.304 54.4295 91.304C55.7308 91.304 56.8935 91.528 57.9175 91.976C58.9415 92.424 59.8055 93.0427 60.5095 93.832C61.2135 94.6 61.7468 95.4853 62.1095 96.488C62.4935 97.4907 62.6855 98.5573 62.6855 99.688C62.6855 99.9653 62.6748 100.253 62.6535 100.552C62.6322 100.851 62.5895 101.128 62.5255 101.384H48.7335V98.504H60.4775L58.7495 99.816C58.9628 98.7707 58.8882 97.8427 58.5255 97.032C58.1842 96.2 57.6508 95.5493 56.9255 95.08C56.2215 94.5893 55.3895 94.344 54.4295 94.344C53.4695 94.344 52.6162 94.5893 51.8695 95.08C51.1228 95.5493 50.5468 96.232 50.1415 97.128C49.7362 98.0027 49.5762 99.0693 49.6615 100.328C49.5548 101.501 49.7148 102.525 50.1415 103.4C50.5895 104.275 51.2082 104.957 51.9975 105.448C52.8082 105.939 53.7255 106.184 54.7495 106.184C55.7948 106.184 56.6802 105.949 57.4055 105.48C58.1522 105.011 58.7388 104.403 59.1655 103.656L62.1095 105.096C61.7682 105.907 61.2348 106.643 60.5095 107.304C59.8055 107.944 58.9522 108.456 57.9495 108.84C56.9682 109.203 55.8908 109.384 54.7175 109.384ZM71.6545 109.384C69.8838 109.384 68.3265 108.947 66.9825 108.072C65.6598 107.197 64.7318 106.024 64.1985 104.552L66.9825 103.24C67.4518 104.221 68.0918 105 68.9025 105.576C69.7345 106.152 70.6518 106.44 71.6545 106.44C72.5078 106.44 73.2012 106.248 73.7345 105.864C74.2678 105.48 74.5345 104.957 74.5345 104.296C74.5345 103.869 74.4172 103.528 74.1825 103.272C73.9478 102.995 73.6492 102.771 73.2865 102.6C72.9452 102.429 72.5932 102.301 72.2305 102.216L69.5105 101.448C68.0172 101.021 66.8972 100.381 66.1505 99.528C65.4252 98.6533 65.0625 97.64 65.0625 96.488C65.0625 95.4427 65.3292 94.536 65.8625 93.768C66.3958 92.9787 67.1318 92.3707 68.0705 91.944C69.0092 91.5173 70.0652 91.304 71.2385 91.304C72.8172 91.304 74.2252 91.6987 75.4625 92.488C76.6998 93.256 77.5745 94.3333 78.0865 95.72L75.3025 97.032C74.9612 96.2 74.4172 95.5387 73.6705 95.048C72.9452 94.5573 72.1238 94.312 71.2065 94.312C70.4172 94.312 69.7878 94.504 69.3185 94.888C68.8492 95.2507 68.6145 95.7307 68.6145 96.328C68.6145 96.7333 68.7212 97.0747 68.9345 97.352C69.1478 97.608 69.4252 97.8213 69.7665 97.992C70.1078 98.1413 70.4598 98.2693 70.8225 98.376L73.6385 99.208C75.0678 99.6133 76.1665 100.253 76.9345 101.128C77.7025 101.981 78.0865 103.005 78.0865 104.2C78.0865 105.224 77.8092 106.131 77.2545 106.92C76.7212 107.688 75.9745 108.296 75.0145 108.744C74.0545 109.171 72.9345 109.384 71.6545 109.384ZM80.6695 109V91.688H84.2855V109H80.6695ZM80.6695 89.32V85.16H84.2855V89.32H80.6695ZM95.9053 116.04C94.6466 116.04 93.4839 115.837 92.4173 115.432C91.3506 115.027 90.4333 114.461 89.6652 113.736C88.8972 113.032 88.3212 112.2 87.9372 111.24L91.2653 109.864C91.5639 110.675 92.1079 111.347 92.8973 111.88C93.7079 112.413 94.6999 112.68 95.8733 112.68C96.7906 112.68 97.6119 112.499 98.3373 112.136C99.0626 111.795 99.6386 111.283 100.065 110.6C100.492 109.939 100.705 109.139 100.705 108.2V104.296L101.345 105.032C100.748 106.141 99.9159 106.984 98.8493 107.56C97.8039 108.136 96.6199 108.424 95.2973 108.424C93.6973 108.424 92.2573 108.051 90.9773 107.304C89.6973 106.557 88.6839 105.533 87.9372 104.232C87.2119 102.931 86.8492 101.469 86.8492 99.848C86.8492 98.2053 87.2119 96.744 87.9372 95.464C88.6839 94.184 89.6866 93.1707 90.9453 92.424C92.2039 91.6773 93.6439 91.304 95.2653 91.304C96.5879 91.304 97.7613 91.592 98.7853 92.168C99.8306 92.7227 100.684 93.5333 101.345 94.6L100.865 95.496V91.688H104.289V108.2C104.289 109.693 103.927 111.027 103.201 112.2C102.497 113.395 101.516 114.333 100.257 115.016C98.9986 115.699 97.5479 116.04 95.9053 116.04ZM95.7133 105.064C96.6733 105.064 97.5266 104.84 98.2733 104.392C99.0199 103.923 99.6066 103.304 100.033 102.536C100.481 101.747 100.705 100.861 100.705 99.88C100.705 98.8987 100.481 98.0133 100.033 97.224C99.5853 96.4347 98.9879 95.816 98.2413 95.368C97.4946 94.8987 96.6519 94.664 95.7133 94.664C94.7319 94.664 93.8573 94.8987 93.0893 95.368C92.3213 95.816 91.7133 96.4347 91.2653 97.224C90.8386 97.992 90.6252 98.8773 90.6252 99.88C90.6252 100.84 90.8386 101.715 91.2653 102.504C91.7133 103.293 92.3213 103.923 93.0893 104.392C93.8573 104.84 94.7319 105.064 95.7133 105.064ZM107.562 109V91.688H111.018V95.08L110.602 94.632C111.029 93.544 111.711 92.7227 112.65 92.168C113.589 91.592 114.677 91.304 115.914 91.304C117.194 91.304 118.325 91.5813 119.306 92.136C120.287 92.6907 121.055 93.4587 121.61 94.44C122.165 95.4213 122.442 96.552 122.442 97.832V109H118.858V98.792C118.858 97.9173 118.698 97.1813 118.378 96.584C118.058 95.9653 117.599 95.496 117.002 95.176C116.426 94.8347 115.765 94.664 115.018 94.664C114.271 94.664 113.599 94.8347 113.002 95.176C112.426 95.496 111.978 95.9653 111.658 96.584C111.338 97.2027 111.178 97.9387 111.178 98.792V109H107.562ZM135.17 109.384C133.996 109.384 132.962 109.181 132.066 108.776C131.191 108.349 130.508 107.773 130.018 107.048C129.527 106.301 129.282 105.427 129.282 104.424C129.282 103.485 129.484 102.643 129.89 101.896C130.316 101.149 130.967 100.52 131.842 100.008C132.716 99.496 133.815 99.1333 135.138 98.92L141.154 97.928V100.776L135.842 101.704C134.882 101.875 134.178 102.184 133.73 102.632C133.282 103.059 133.058 103.613 133.058 104.296C133.058 104.957 133.303 105.501 133.794 105.928C134.306 106.333 134.956 106.536 135.746 106.536C136.727 106.536 137.58 106.323 138.306 105.896C139.052 105.469 139.628 104.904 140.034 104.2C140.439 103.475 140.642 102.675 140.642 101.8V97.352C140.642 96.4987 140.322 95.8053 139.682 95.272C139.063 94.7173 138.231 94.44 137.186 94.44C136.226 94.44 135.383 94.696 134.658 95.208C133.954 95.6987 133.431 96.3387 133.09 97.128L130.082 95.624C130.402 94.7707 130.924 94.024 131.65 93.384C132.375 92.7227 133.218 92.2107 134.178 91.848C135.159 91.4853 136.194 91.304 137.282 91.304C138.647 91.304 139.852 91.56 140.898 92.072C141.964 92.584 142.786 93.2987 143.362 94.216C143.959 95.112 144.258 96.1573 144.258 97.352V109H140.802V105.864L141.538 105.96C141.132 106.664 140.61 107.272 139.97 107.784C139.351 108.296 138.636 108.691 137.826 108.968C137.036 109.245 136.151 109.384 135.17 109.384ZM147.526 109V91.688H150.982V95.08L150.566 94.632C150.992 93.544 151.675 92.7227 152.614 92.168C153.552 91.592 154.64 91.304 155.878 91.304C157.158 91.304 158.288 91.5813 159.27 92.136C160.251 92.6907 161.019 93.4587 161.574 94.44C162.128 95.4213 162.406 96.552 162.406 97.832V109H158.822V98.792C158.822 97.9173 158.662 97.1813 158.342 96.584C158.022 95.9653 157.563 95.496 156.966 95.176C156.39 94.8347 155.728 94.664 154.982 94.664C154.235 94.664 153.563 94.8347 152.966 95.176C152.39 95.496 151.942 95.9653 151.622 96.584C151.302 97.2027 151.142 97.9387 151.142 98.792V109H147.526ZM173.316 109.384C171.652 109.384 170.158 108.989 168.836 108.2C167.534 107.389 166.5 106.301 165.732 104.936C164.985 103.571 164.612 102.035 164.612 100.328C164.612 98.6213 164.996 97.0853 165.764 95.72C166.532 94.3547 167.566 93.2773 168.868 92.488C170.169 91.6987 171.641 91.304 173.284 91.304C174.67 91.304 175.897 91.5813 176.964 92.136C178.03 92.6907 178.873 93.4587 179.492 94.44L178.948 95.272V84.776H182.532V109H179.108V105.48L179.524 106.152C178.926 107.197 178.073 107.997 176.964 108.552C175.854 109.107 174.638 109.384 173.316 109.384ZM173.668 106.024C174.67 106.024 175.566 105.779 176.356 105.288C177.166 104.797 177.796 104.125 178.244 103.272C178.713 102.397 178.948 101.416 178.948 100.328C178.948 99.24 178.713 98.2693 178.244 97.416C177.796 96.5627 177.166 95.8907 176.356 95.4C175.566 94.9093 174.67 94.664 173.668 94.664C172.665 94.664 171.758 94.9093 170.948 95.4C170.137 95.8907 169.508 96.5627 169.06 97.416C168.612 98.2693 168.388 99.24 168.388 100.328C168.388 101.416 168.612 102.397 169.06 103.272C169.508 104.125 170.126 104.797 170.916 105.288C171.726 105.779 172.644 106.024 173.668 106.024ZM195.611 109.384C194.438 109.384 193.403 109.181 192.507 108.776C191.632 108.349 190.95 107.773 190.459 107.048C189.968 106.301 189.723 105.427 189.723 104.424C189.723 103.485 189.926 102.643 190.331 101.896C190.758 101.149 191.408 100.52 192.283 100.008C193.158 99.496 194.256 99.1333 195.579 98.92L201.595 97.928V100.776L196.283 101.704C195.323 101.875 194.619 102.184 194.171 102.632C193.723 103.059 193.499 103.613 193.499 104.296C193.499 104.957 193.744 105.501 194.235 105.928C194.747 106.333 195.398 106.536 196.187 106.536C197.168 106.536 198.022 106.323 198.747 105.896C199.494 105.469 200.07 104.904 200.475 104.2C200.88 103.475 201.083 102.675 201.083 101.8V97.352C201.083 96.4987 200.763 95.8053 200.123 95.272C199.504 94.7173 198.672 94.44 197.627 94.44C196.667 94.44 195.824 94.696 195.099 95.208C194.395 95.6987 193.872 96.3387 193.531 97.128L190.523 95.624C190.843 94.7707 191.366 94.024 192.091 93.384C192.816 92.7227 193.659 92.2107 194.619 91.848C195.6 91.4853 196.635 91.304 197.723 91.304C199.088 91.304 200.294 91.56 201.339 92.072C202.406 92.584 203.227 93.2987 203.803 94.216C204.4 95.112 204.699 96.1573 204.699 97.352V109H201.243V105.864L201.979 105.96C201.574 106.664 201.051 107.272 200.411 107.784C199.792 108.296 199.078 108.691 198.267 108.968C197.478 109.245 196.592 109.384 195.611 109.384ZM216.191 109.384C214.463 109.384 212.927 108.989 211.583 108.2C210.26 107.389 209.204 106.301 208.415 104.936C207.647 103.571 207.263 102.024 207.263 100.296C207.263 98.5893 207.647 97.0533 208.415 95.688C209.183 94.3227 210.239 93.256 211.583 92.488C212.927 91.6987 214.463 91.304 216.191 91.304C217.364 91.304 218.463 91.5173 219.487 91.944C220.511 92.3493 221.396 92.9147 222.143 93.64C222.911 94.3653 223.476 95.208 223.839 96.168L220.671 97.64C220.308 96.744 219.722 96.0293 218.911 95.496C218.122 94.9413 217.215 94.664 216.191 94.664C215.21 94.664 214.324 94.9093 213.535 95.4C212.767 95.8693 212.159 96.5413 211.711 97.416C211.263 98.2693 211.039 99.24 211.039 100.328C211.039 101.416 211.263 102.397 211.711 103.272C212.159 104.125 212.767 104.797 213.535 105.288C214.324 105.779 215.21 106.024 216.191 106.024C217.236 106.024 218.143 105.757 218.911 105.224C219.7 104.669 220.287 103.933 220.671 103.016L223.839 104.52C223.498 105.437 222.943 106.269 222.175 107.016C221.428 107.741 220.543 108.317 219.519 108.744C218.495 109.171 217.386 109.384 216.191 109.384ZM234.637 109.384C232.909 109.384 231.373 108.989 230.029 108.2C228.707 107.389 227.651 106.301 226.861 104.936C226.093 103.571 225.709 102.024 225.709 100.296C225.709 98.5893 226.093 97.0533 226.861 95.688C227.629 94.3227 228.685 93.256 230.029 92.488C231.373 91.6987 232.909 91.304 234.637 91.304C235.811 91.304 236.909 91.5173 237.933 91.944C238.957 92.3493 239.843 92.9147 240.589 93.64C241.357 94.3653 241.923 95.208 242.285 96.168L239.117 97.64C238.755 96.744 238.168 96.0293 237.357 95.496C236.568 94.9413 235.661 94.664 234.637 94.664C233.656 94.664 232.771 94.9093 231.981 95.4C231.213 95.8693 230.605 96.5413 230.157 97.416C229.709 98.2693 229.485 99.24 229.485 100.328C229.485 101.416 229.709 102.397 230.157 103.272C230.605 104.125 231.213 104.797 231.981 105.288C232.771 105.779 233.656 106.024 234.637 106.024C235.683 106.024 236.589 105.757 237.357 105.224C238.147 104.669 238.733 103.933 239.117 103.016L242.285 104.52C241.944 105.437 241.389 106.269 240.621 107.016C239.875 107.741 238.989 108.317 237.965 108.744C236.941 109.171 235.832 109.384 234.637 109.384ZM252.987 109.384C251.259 109.384 249.723 108.989 248.379 108.2C247.057 107.389 246.022 106.301 245.275 104.936C244.529 103.549 244.155 102.003 244.155 100.296C244.155 98.5467 244.529 97 245.275 95.656C246.043 94.312 247.067 93.256 248.347 92.488C249.627 91.6987 251.078 91.304 252.699 91.304C254.001 91.304 255.163 91.528 256.187 91.976C257.211 92.424 258.075 93.0427 258.779 93.832C259.483 94.6 260.017 95.4853 260.379 96.488C260.763 97.4907 260.955 98.5573 260.955 99.688C260.955 99.9653 260.945 100.253 260.923 100.552C260.902 100.851 260.859 101.128 260.795 101.384H247.003V98.504H258.747L257.019 99.816C257.233 98.7707 257.158 97.8427 256.795 97.032C256.454 96.2 255.921 95.5493 255.195 95.08C254.491 94.5893 253.659 94.344 252.699 94.344C251.739 94.344 250.886 94.5893 250.139 95.08C249.393 95.5493 248.817 96.232 248.411 97.128C248.006 98.0027 247.846 99.0693 247.931 100.328C247.825 101.501 247.985 102.525 248.411 103.4C248.859 104.275 249.478 104.957 250.267 105.448C251.078 105.939 251.995 106.184 253.019 106.184C254.065 106.184 254.95 105.949 255.675 105.48C256.422 105.011 257.009 104.403 257.435 103.656L260.379 105.096C260.038 105.907 259.505 106.643 258.779 107.304C258.075 107.944 257.222 108.456 256.219 108.84C255.238 109.203 254.161 109.384 252.987 109.384ZM263.525 109V84.776H267.141V109H263.525ZM278.536 109.384C276.808 109.384 275.272 108.989 273.928 108.2C272.606 107.389 271.571 106.301 270.824 104.936C270.078 103.549 269.704 102.003 269.704 100.296C269.704 98.5467 270.078 97 270.824 95.656C271.592 94.312 272.616 93.256 273.896 92.488C275.176 91.6987 276.627 91.304 278.248 91.304C279.55 91.304 280.712 91.528 281.736 91.976C282.76 92.424 283.624 93.0427 284.328 93.832C285.032 94.6 285.566 95.4853 285.928 96.488C286.312 97.4907 286.504 98.5573 286.504 99.688C286.504 99.9653 286.494 100.253 286.472 100.552C286.451 100.851 286.408 101.128 286.344 101.384H272.552V98.504H284.296L282.568 99.816C282.782 98.7707 282.707 97.8427 282.344 97.032C282.003 96.2 281.47 95.5493 280.744 95.08C280.04 94.5893 279.208 94.344 278.248 94.344C277.288 94.344 276.435 94.5893 275.688 95.08C274.942 95.5493 274.366 96.232 273.96 97.128C273.555 98.0027 273.395 99.0693 273.48 100.328C273.374 101.501 273.534 102.525 273.96 103.4C274.408 104.275 275.027 104.957 275.816 105.448C276.627 105.939 277.544 106.184 278.568 106.184C279.614 106.184 280.499 105.949 281.224 105.48C281.971 105.011 282.558 104.403 282.984 103.656L285.928 105.096C285.587 105.907 285.054 106.643 284.328 107.304C283.624 107.944 282.771 108.456 281.768 108.84C280.787 109.203 279.71 109.384 278.536 109.384ZM289.073 109V91.688H292.529V95.176L292.209 94.664C292.593 93.5333 293.212 92.7227 294.065 92.232C294.919 91.72 295.943 91.464 297.137 91.464H298.193V94.76H296.689C295.495 94.76 294.524 95.1333 293.777 95.88C293.052 96.6053 292.689 97.6507 292.689 99.016V109H289.073ZM304.891 109.384C303.718 109.384 302.683 109.181 301.787 108.776C300.912 108.349 300.23 107.773 299.739 107.048C299.248 106.301 299.003 105.427 299.003 104.424C299.003 103.485 299.206 102.643 299.611 101.896C300.038 101.149 300.688 100.52 301.563 100.008C302.438 99.496 303.536 99.1333 304.859 98.92L310.875 97.928V100.776L305.563 101.704C304.603 101.875 303.899 102.184 303.451 102.632C303.003 103.059 302.779 103.613 302.779 104.296C302.779 104.957 303.024 105.501 303.515 105.928C304.027 106.333 304.678 106.536 305.467 106.536C306.448 106.536 307.302 106.323 308.027 105.896C308.774 105.469 309.35 104.904 309.755 104.2C310.16 103.475 310.363 102.675 310.363 101.8V97.352C310.363 96.4987 310.043 95.8053 309.403 95.272C308.784 94.7173 307.952 94.44 306.907 94.44C305.947 94.44 305.104 94.696 304.379 95.208C303.675 95.6987 303.152 96.3387 302.811 97.128L299.803 95.624C300.123 94.7707 300.646 94.024 301.371 93.384C302.096 92.7227 302.939 92.2107 303.899 91.848C304.88 91.4853 305.915 91.304 307.003 91.304C308.368 91.304 309.574 91.56 310.619 92.072C311.686 92.584 312.507 93.2987 313.083 94.216C313.68 95.112 313.979 96.1573 313.979 97.352V109H310.523V105.864L311.259 105.96C310.854 106.664 310.331 107.272 309.691 107.784C309.072 108.296 308.358 108.691 307.547 108.968C306.758 109.245 305.872 109.384 304.891 109.384ZM324.423 109.192C322.609 109.192 321.201 108.68 320.199 107.656C319.196 106.632 318.695 105.192 318.695 103.336V94.952H315.655V91.688H316.135C316.945 91.688 317.575 91.4533 318.023 90.984C318.471 90.5147 318.695 89.8747 318.695 89.064V87.72H322.311V91.688H326.247V94.952H322.311V103.176C322.311 103.773 322.407 104.285 322.599 104.712C322.791 105.117 323.1 105.437 323.527 105.672C323.953 105.885 324.508 105.992 325.191 105.992C325.361 105.992 325.553 105.981 325.767 105.96C325.98 105.939 326.183 105.917 326.375 105.896V109C326.076 109.043 325.745 109.085 325.383 109.128C325.02 109.171 324.7 109.192 324.423 109.192ZM328.943 109V91.688H332.559V109H328.943ZM328.943 89.32V85.16H332.559V89.32H328.943ZM344.179 109.384C342.515 109.384 340.99 108.989 339.603 108.2C338.238 107.411 337.15 106.333 336.339 104.968C335.528 103.603 335.123 102.056 335.123 100.328C335.123 98.5787 335.528 97.032 336.339 95.688C337.15 94.3227 338.238 93.256 339.603 92.488C340.968 91.6987 342.494 91.304 344.179 91.304C345.886 91.304 347.411 91.6987 348.755 92.488C350.12 93.256 351.198 94.3227 351.987 95.688C352.798 97.032 353.203 98.5787 353.203 100.328C353.203 102.077 352.798 103.635 351.987 105C351.176 106.365 350.088 107.443 348.723 108.232C347.358 109 345.843 109.384 344.179 109.384ZM344.179 106.024C345.203 106.024 346.11 105.779 346.899 105.288C347.688 104.797 348.307 104.125 348.755 103.272C349.224 102.397 349.459 101.416 349.459 100.328C349.459 99.24 349.224 98.2693 348.755 97.416C348.307 96.5627 347.688 95.8907 346.899 95.4C346.11 94.9093 345.203 94.664 344.179 94.664C343.176 94.664 342.27 94.9093 341.459 95.4C340.67 95.8907 340.04 96.5627 339.571 97.416C339.123 98.2693 338.899 99.24 338.899 100.328C338.899 101.416 339.123 102.397 339.571 103.272C340.04 104.125 340.67 104.797 341.459 105.288C342.27 105.779 343.176 106.024 344.179 106.024ZM355.773 109V91.688H359.229V95.08L358.813 94.632C359.24 93.544 359.923 92.7227 360.861 92.168C361.8 91.592 362.888 91.304 364.125 91.304C365.405 91.304 366.536 91.5813 367.517 92.136C368.499 92.6907 369.267 93.4587 369.821 94.44C370.376 95.4213 370.653 96.552 370.653 97.832V109H367.069V98.792C367.069 97.9173 366.909 97.1813 366.589 96.584C366.269 95.9653 365.811 95.496 365.213 95.176C364.637 94.8347 363.976 94.664 363.229 94.664C362.483 94.664 361.811 94.8347 361.213 95.176C360.637 95.496 360.189 95.9653 359.869 96.584C359.549 97.2027 359.389 97.9387 359.389 98.792V109H355.773Z" fill="white"/>
<path d="M29.424 155.192C28.6667 155.192 27.9733 155.053 27.344 154.776C26.7147 154.488 26.1813 154.099 25.744 153.608C25.3067 153.117 24.992 152.568 24.8 151.96L26.16 151.4C26.448 152.168 26.8747 152.76 27.44 153.176C28.016 153.581 28.688 153.784 29.456 153.784C29.9253 153.784 30.336 153.709 30.688 153.56C31.04 153.411 31.312 153.203 31.504 152.936C31.7067 152.659 31.808 152.339 31.808 151.976C31.808 151.475 31.664 151.08 31.376 150.792C31.0987 150.493 30.688 150.269 30.144 150.12L27.952 149.448C27.088 149.181 26.4267 148.76 25.968 148.184C25.5093 147.608 25.28 146.947 25.28 146.2C25.28 145.549 25.4347 144.979 25.744 144.488C26.064 143.987 26.5013 143.597 27.056 143.32C27.6213 143.032 28.2613 142.888 28.976 142.888C29.6907 142.888 30.336 143.016 30.912 143.272C31.4987 143.528 31.9947 143.875 32.4 144.312C32.8053 144.739 33.104 145.229 33.296 145.784L31.952 146.344C31.696 145.672 31.312 145.165 30.8 144.824C30.288 144.472 29.6853 144.296 28.992 144.296C28.5653 144.296 28.1867 144.371 27.856 144.52C27.536 144.659 27.2853 144.867 27.104 145.144C26.9333 145.411 26.848 145.731 26.848 146.104C26.848 146.541 26.9867 146.931 27.264 147.272C27.5413 147.613 27.9627 147.875 28.528 148.056L30.528 148.648C31.4667 148.936 32.176 149.347 32.656 149.88C33.136 150.413 33.376 151.075 33.376 151.864C33.376 152.515 33.2053 153.091 32.864 153.592C32.5333 154.093 32.0693 154.488 31.472 154.776C30.8853 155.053 30.2027 155.192 29.424 155.192ZM37.4694 155.192C36.904 155.192 36.4027 155.091 35.9654 154.888C35.5387 154.675 35.2027 154.387 34.9574 154.024C34.712 153.651 34.5894 153.224 34.5894 152.744C34.5894 152.285 34.6854 151.875 34.8774 151.512C35.08 151.139 35.3894 150.824 35.8054 150.568C36.232 150.312 36.7654 150.131 37.4054 150.024L40.6054 149.496V150.744L37.7414 151.224C37.1867 151.32 36.7814 151.496 36.5254 151.752C36.28 152.008 36.1574 152.323 36.1574 152.696C36.1574 153.048 36.296 153.341 36.5734 153.576C36.8614 153.811 37.2187 153.928 37.6454 153.928C38.1894 153.928 38.6587 153.816 39.0534 153.592C39.4587 153.357 39.7734 153.043 39.9974 152.648C40.232 152.253 40.3494 151.816 40.3494 151.336V149.144C40.3494 148.675 40.1734 148.296 39.8214 148.008C39.48 147.709 39.0267 147.56 38.4614 147.56C37.9707 147.56 37.5334 147.688 37.1494 147.944C36.776 148.189 36.4987 148.52 36.3174 148.936L35.0214 148.264C35.1814 147.869 35.4374 147.517 35.7894 147.208C36.1414 146.888 36.552 146.637 37.0214 146.456C37.4907 146.275 37.9814 146.184 38.4934 146.184C39.1547 146.184 39.736 146.312 40.2374 146.568C40.7387 146.813 41.128 147.16 41.4054 147.608C41.6934 148.045 41.8374 148.557 41.8374 149.144V155H40.3814V153.368L40.6534 153.464C40.472 153.805 40.2267 154.104 39.9174 154.36C39.608 154.616 39.2454 154.819 38.8294 154.968C38.4134 155.117 37.96 155.192 37.4694 155.192ZM44.7053 155V147.8H43.0573V146.376H44.7053V145.768C44.7053 145.149 44.8386 144.627 45.1053 144.2C45.3826 143.773 45.7453 143.448 46.1933 143.224C46.6519 143 47.1586 142.888 47.7133 142.888C47.8306 142.888 47.9586 142.899 48.0973 142.92C48.2466 142.931 48.3693 142.947 48.4653 142.968V144.296C48.3799 144.275 48.2786 144.264 48.1613 144.264C48.0439 144.253 47.9533 144.248 47.8893 144.248C47.3986 144.248 46.9933 144.365 46.6733 144.6C46.3639 144.835 46.2093 145.224 46.2093 145.768V146.376H48.2573V147.8H46.2093V155H44.7053ZM53.3944 155.192C52.5624 155.192 51.821 154.995 51.1704 154.6C50.5197 154.205 50.0077 153.667 49.6344 152.984C49.261 152.291 49.0744 151.517 49.0744 150.664C49.0744 149.8 49.2557 149.032 49.6184 148.36C49.9917 147.688 50.493 147.16 51.1224 146.776C51.7624 146.381 52.477 146.184 53.2664 146.184C53.9064 146.184 54.4717 146.301 54.9624 146.536C55.4637 146.76 55.885 147.069 56.2264 147.464C56.5784 147.848 56.845 148.291 57.0264 148.792C57.2184 149.283 57.3144 149.795 57.3144 150.328C57.3144 150.445 57.3037 150.579 57.2824 150.728C57.2717 150.867 57.2557 151 57.2344 151.128H50.1624V149.848H56.3704L55.6664 150.424C55.7624 149.869 55.709 149.373 55.5064 148.936C55.3037 148.499 55.005 148.152 54.6104 147.896C54.2157 147.64 53.7677 147.512 53.2664 147.512C52.765 147.512 52.3064 147.64 51.8904 147.896C51.4744 148.152 51.149 148.52 50.9144 149C50.6904 149.469 50.5997 150.029 50.6424 150.68C50.5997 151.309 50.6957 151.864 50.9304 152.344C51.1757 152.813 51.517 153.181 51.9544 153.448C52.4024 153.704 52.8877 153.832 53.4104 153.832C53.9864 153.832 54.4717 153.699 54.8664 153.432C55.261 153.165 55.581 152.824 55.8264 152.408L57.0744 153.048C56.9037 153.443 56.637 153.805 56.2744 154.136C55.9224 154.456 55.501 154.712 55.0104 154.904C54.5304 155.096 53.9917 155.192 53.3944 155.192ZM62.4385 155.096C61.5958 155.096 60.9452 154.856 60.4865 154.376C60.0385 153.896 59.8145 153.219 59.8145 152.344V147.8H58.2465V146.376H58.5665C58.9505 146.376 59.2545 146.259 59.4785 146.024C59.7025 145.789 59.8145 145.48 59.8145 145.096V144.392H61.3025V146.376H63.2385V147.8H61.3025V152.296C61.3025 152.584 61.3452 152.835 61.4305 153.048C61.5265 153.261 61.6812 153.432 61.8945 153.56C62.1078 153.677 62.3905 153.736 62.7425 153.736C62.8172 153.736 62.9078 153.731 63.0145 153.72C63.1318 153.709 63.2385 153.699 63.3345 153.688V155C63.1958 155.032 63.0412 155.053 62.8705 155.064C62.6998 155.085 62.5558 155.096 62.4385 155.096ZM65.4223 158.52C65.2303 158.52 65.0383 158.504 64.8463 158.472C64.6543 158.451 64.4729 158.403 64.3023 158.328V157C64.4196 157.011 64.5636 157.032 64.7343 157.064C64.9156 157.096 65.0916 157.112 65.2623 157.112C65.7636 157.112 66.1423 157 66.3983 156.776C66.6649 156.552 66.9156 156.173 67.1503 155.64L67.6943 154.344L67.6623 155.64L63.9823 146.376H65.5983L68.4623 153.736H67.9823L70.8303 146.376H72.4783L68.5903 156.024C68.4089 156.483 68.1743 156.904 67.8863 157.288C67.6089 157.672 67.2676 157.971 66.8623 158.184C66.4569 158.408 65.9769 158.52 65.4223 158.52ZM78.4556 155.192C77.8903 155.192 77.389 155.091 76.9516 154.888C76.525 154.675 76.189 154.387 75.9436 154.024C75.6983 153.651 75.5756 153.224 75.5756 152.744C75.5756 152.285 75.6716 151.875 75.8636 151.512C76.0663 151.139 76.3756 150.824 76.7916 150.568C77.2183 150.312 77.7516 150.131 78.3916 150.024L81.5916 149.496V150.744L78.7276 151.224C78.173 151.32 77.7676 151.496 77.5116 151.752C77.2663 152.008 77.1436 152.323 77.1436 152.696C77.1436 153.048 77.2823 153.341 77.5596 153.576C77.8476 153.811 78.205 153.928 78.6316 153.928C79.1756 153.928 79.645 153.816 80.0396 153.592C80.445 153.357 80.7596 153.043 80.9836 152.648C81.2183 152.253 81.3356 151.816 81.3356 151.336V149.144C81.3356 148.675 81.1596 148.296 80.8076 148.008C80.4663 147.709 80.013 147.56 79.4476 147.56C78.957 147.56 78.5196 147.688 78.1356 147.944C77.7623 148.189 77.485 148.52 77.3036 148.936L76.0076 148.264C76.1676 147.869 76.4236 147.517 76.7756 147.208C77.1276 146.888 77.5383 146.637 78.0076 146.456C78.477 146.275 78.9676 146.184 79.4796 146.184C80.141 146.184 80.7223 146.312 81.2236 146.568C81.725 146.813 82.1143 147.16 82.3916 147.608C82.6796 148.045 82.8236 148.557 82.8236 149.144V155H81.3676V153.368L81.6396 153.464C81.4583 153.805 81.213 154.104 80.9036 154.36C80.5943 154.616 80.2316 154.819 79.8156 154.968C79.3996 155.117 78.9463 155.192 78.4556 155.192ZM84.8107 155V146.376H86.2667V148.056L86.0267 147.912C86.2401 147.368 86.5814 146.947 87.0507 146.648C87.5307 146.339 88.0907 146.184 88.7307 146.184C89.3494 146.184 89.8987 146.323 90.3787 146.6C90.8694 146.877 91.2534 147.261 91.5307 147.752C91.8187 148.243 91.9627 148.797 91.9627 149.416V155H90.4587V149.896C90.4587 149.416 90.3734 149.011 90.2027 148.68C90.0321 148.349 89.7867 148.093 89.4667 147.912C89.1574 147.72 88.8001 147.624 88.3947 147.624C87.9894 147.624 87.6267 147.72 87.3067 147.912C86.9974 148.093 86.7521 148.355 86.5707 148.696C86.3894 149.027 86.2987 149.427 86.2987 149.896V155H84.8107ZM97.692 155.192C96.8813 155.192 96.1507 154.995 95.5 154.6C94.86 154.205 94.3533 153.667 93.98 152.984C93.6067 152.301 93.42 151.539 93.42 150.696C93.42 149.832 93.6067 149.064 93.98 148.392C94.3533 147.709 94.86 147.171 95.5 146.776C96.1507 146.381 96.8813 146.184 97.692 146.184C98.4067 146.184 99.0413 146.339 99.596 146.648C100.151 146.947 100.588 147.352 100.908 147.864L100.668 148.232V142.888H102.172V155H100.716V153.16L100.908 153.416C100.609 153.981 100.172 154.419 99.596 154.728C99.0307 155.037 98.396 155.192 97.692 155.192ZM97.82 153.752C98.364 153.752 98.8493 153.619 99.276 153.352C99.7027 153.085 100.039 152.723 100.284 152.264C100.54 151.795 100.668 151.272 100.668 150.696C100.668 150.109 100.54 149.587 100.284 149.128C100.039 148.659 99.7027 148.291 99.276 148.024C98.8493 147.757 98.364 147.624 97.82 147.624C97.2867 147.624 96.8013 147.763 96.364 148.04C95.9373 148.307 95.6013 148.669 95.356 149.128C95.1107 149.576 94.988 150.099 94.988 150.696C94.988 151.272 95.1107 151.795 95.356 152.264C95.6013 152.723 95.9373 153.085 96.364 153.352C96.7907 153.619 97.276 153.752 97.82 153.752ZM110.601 155.192C109.758 155.192 109.006 154.995 108.345 154.6C107.694 154.205 107.182 153.667 106.809 152.984C106.435 152.301 106.249 151.533 106.249 150.68C106.249 149.816 106.435 149.048 106.809 148.376C107.182 147.704 107.694 147.171 108.345 146.776C109.006 146.381 109.758 146.184 110.601 146.184C111.166 146.184 111.694 146.285 112.185 146.488C112.675 146.691 113.107 146.963 113.481 147.304C113.854 147.645 114.126 148.045 114.297 148.504L112.969 149.144C112.766 148.696 112.457 148.333 112.041 148.056C111.625 147.768 111.145 147.624 110.601 147.624C110.078 147.624 109.603 147.757 109.177 148.024C108.761 148.291 108.43 148.653 108.185 149.112C107.939 149.571 107.817 150.099 107.817 150.696C107.817 151.272 107.939 151.795 108.185 152.264C108.43 152.723 108.761 153.085 109.177 153.352C109.603 153.619 110.078 153.752 110.601 153.752C111.145 153.752 111.625 153.613 112.041 153.336C112.457 153.048 112.766 152.669 112.969 152.2L114.297 152.872C114.126 153.32 113.854 153.72 113.481 154.072C113.107 154.413 112.675 154.685 112.185 154.888C111.694 155.091 111.166 155.192 110.601 155.192ZM120.017 155.192C119.185 155.192 118.433 155 117.761 154.616C117.089 154.221 116.556 153.683 116.161 153C115.767 152.317 115.569 151.544 115.569 150.68C115.569 149.816 115.761 149.048 116.145 148.376C116.54 147.704 117.073 147.171 117.745 146.776C118.417 146.381 119.175 146.184 120.017 146.184C120.849 146.184 121.601 146.381 122.273 146.776C122.945 147.16 123.473 147.688 123.857 148.36C124.252 149.032 124.449 149.805 124.449 150.68C124.449 151.555 124.247 152.333 123.841 153.016C123.436 153.688 122.897 154.221 122.225 154.616C121.564 155 120.828 155.192 120.017 155.192ZM120.017 153.752C120.551 153.752 121.031 153.619 121.457 153.352C121.895 153.085 122.236 152.717 122.481 152.248C122.737 151.779 122.865 151.256 122.865 150.68C122.865 150.093 122.737 149.576 122.481 149.128C122.236 148.669 121.895 148.307 121.457 148.04C121.031 147.763 120.551 147.624 120.017 147.624C119.473 147.624 118.983 147.763 118.545 148.04C118.119 148.307 117.777 148.669 117.521 149.128C117.265 149.576 117.137 150.093 117.137 150.68C117.137 151.256 117.265 151.779 117.521 152.248C117.777 152.717 118.119 153.085 118.545 153.352C118.983 153.619 119.473 153.752 120.017 153.752ZM126.07 155V146.376H127.526V148.136L127.318 147.864C127.531 147.32 127.873 146.904 128.342 146.616C128.811 146.328 129.339 146.184 129.926 146.184C130.598 146.184 131.201 146.371 131.734 146.744C132.278 147.117 132.651 147.608 132.854 148.216L132.438 148.232C132.662 147.56 133.041 147.053 133.574 146.712C134.107 146.36 134.699 146.184 135.35 146.184C135.947 146.184 136.486 146.323 136.966 146.6C137.457 146.877 137.846 147.261 138.134 147.752C138.422 148.243 138.566 148.797 138.566 149.416V155H137.062V149.896C137.062 149.416 136.977 149.011 136.806 148.68C136.635 148.349 136.401 148.093 136.102 147.912C135.814 147.72 135.473 147.624 135.078 147.624C134.694 147.624 134.347 147.72 134.038 147.912C133.739 148.093 133.499 148.355 133.318 148.696C133.147 149.027 133.062 149.427 133.062 149.896V155H131.558V149.896C131.558 149.416 131.473 149.011 131.302 148.68C131.131 148.349 130.897 148.093 130.598 147.912C130.31 147.72 129.969 147.624 129.574 147.624C129.19 147.624 128.843 147.72 128.534 147.912C128.235 148.093 127.995 148.355 127.814 148.696C127.643 149.027 127.558 149.427 127.558 149.896V155H126.07ZM141.271 155V147.8H139.623V146.376H141.271V145.768C141.271 145.149 141.405 144.627 141.671 144.2C141.949 143.773 142.311 143.448 142.759 143.224C143.218 143 143.725 142.888 144.279 142.888C144.397 142.888 144.525 142.899 144.663 142.92C144.813 142.931 144.935 142.947 145.031 142.968V144.296C144.946 144.275 144.845 144.264 144.727 144.264C144.61 144.253 144.519 144.248 144.455 144.248C143.965 144.248 143.559 144.365 143.239 144.6C142.93 144.835 142.775 145.224 142.775 145.768V146.376H144.823V147.8H142.775V155H141.271ZM150.089 155.192C149.257 155.192 148.505 155 147.833 154.616C147.161 154.221 146.627 153.683 146.233 153C145.838 152.317 145.641 151.544 145.641 150.68C145.641 149.816 145.833 149.048 146.217 148.376C146.611 147.704 147.145 147.171 147.817 146.776C148.489 146.381 149.246 146.184 150.089 146.184C150.921 146.184 151.673 146.381 152.345 146.776C153.017 147.16 153.545 147.688 153.929 148.36C154.323 149.032 154.521 149.805 154.521 150.68C154.521 151.555 154.318 152.333 153.913 153.016C153.507 153.688 152.969 154.221 152.297 154.616C151.635 155 150.899 155.192 150.089 155.192ZM150.089 153.752C150.622 153.752 151.102 153.619 151.529 153.352C151.966 153.085 152.307 152.717 152.553 152.248C152.809 151.779 152.937 151.256 152.937 150.68C152.937 150.093 152.809 149.576 152.553 149.128C152.307 148.669 151.966 148.307 151.529 148.04C151.102 147.763 150.622 147.624 150.089 147.624C149.545 147.624 149.054 147.763 148.617 148.04C148.19 148.307 147.849 148.669 147.593 149.128C147.337 149.576 147.209 150.093 147.209 150.68C147.209 151.256 147.337 151.779 147.593 152.248C147.849 152.717 148.19 153.085 148.617 153.352C149.054 153.619 149.545 153.752 150.089 153.752ZM156.141 155V146.376H157.597V147.96L157.437 147.736C157.64 147.245 157.949 146.883 158.365 146.648C158.781 146.403 159.288 146.28 159.885 146.28H160.413V147.688H159.661C159.053 147.688 158.563 147.88 158.189 148.264C157.816 148.637 157.629 149.171 157.629 149.864V155H156.141ZM164.997 155.096C164.155 155.096 163.504 154.856 163.045 154.376C162.597 153.896 162.373 153.219 162.373 152.344V147.8H160.805V146.376H161.125C161.509 146.376 161.813 146.259 162.037 146.024C162.261 145.789 162.373 145.48 162.373 145.096V144.392H163.861V146.376H165.797V147.8H163.861V152.296C163.861 152.584 163.904 152.835 163.989 153.048C164.085 153.261 164.24 153.432 164.453 153.56C164.667 153.677 164.949 153.736 165.301 153.736C165.376 153.736 165.467 153.731 165.573 153.72C165.691 153.709 165.797 153.699 165.893 153.688V155C165.755 155.032 165.6 155.053 165.429 155.064C165.259 155.085 165.115 155.096 164.997 155.096ZM171.947 155L168.987 146.376H170.635L172.987 153.592L172.411 153.576L174.715 146.376H176.123L178.427 153.576L177.851 153.592L180.219 146.376H181.851L178.891 155H177.467L175.195 147.8H175.643L173.371 155H171.947ZM182.861 155V142.888H184.349V148.056L184.077 147.912C184.291 147.368 184.632 146.947 185.101 146.648C185.581 146.339 186.141 146.184 186.781 146.184C187.4 146.184 187.949 146.323 188.429 146.6C188.92 146.877 189.304 147.261 189.581 147.752C189.869 148.243 190.013 148.797 190.013 149.416V155H188.509V149.896C188.509 149.416 188.419 149.011 188.237 148.68C188.067 148.349 187.827 148.093 187.517 147.912C187.208 147.72 186.851 147.624 186.445 147.624C186.051 147.624 185.693 147.72 185.373 147.912C185.053 148.093 184.803 148.355 184.621 148.696C184.44 149.027 184.349 149.427 184.349 149.896V155H182.861ZM191.823 155V146.376H193.311V155H191.823ZM191.823 145V143.08H193.311V145H191.823ZM195.3 155V142.888H196.788V155H195.3ZM202.744 155.192C201.912 155.192 201.171 154.995 200.52 154.6C199.87 154.205 199.358 153.667 198.984 152.984C198.611 152.291 198.424 151.517 198.424 150.664C198.424 149.8 198.606 149.032 198.968 148.36C199.342 147.688 199.843 147.16 200.472 146.776C201.112 146.381 201.827 146.184 202.616 146.184C203.256 146.184 203.822 146.301 204.312 146.536C204.814 146.76 205.235 147.069 205.576 147.464C205.928 147.848 206.195 148.291 206.376 148.792C206.568 149.283 206.664 149.795 206.664 150.328C206.664 150.445 206.654 150.579 206.632 150.728C206.622 150.867 206.606 151 206.584 151.128H199.512V149.848H205.72L205.016 150.424C205.112 149.869 205.059 149.373 204.856 148.936C204.654 148.499 204.355 148.152 203.96 147.896C203.566 147.64 203.118 147.512 202.616 147.512C202.115 147.512 201.656 147.64 201.24 147.896C200.824 148.152 200.499 148.52 200.264 149C200.04 149.469 199.95 150.029 199.992 150.68C199.95 151.309 200.046 151.864 200.28 152.344C200.526 152.813 200.867 153.181 201.304 153.448C201.752 153.704 202.238 153.832 202.76 153.832C203.336 153.832 203.822 153.699 204.216 153.432C204.611 153.165 204.931 152.824 205.176 152.408L206.424 153.048C206.254 153.443 205.987 153.805 205.624 154.136C205.272 154.456 204.851 154.712 204.36 154.904C203.88 155.096 203.342 155.192 202.744 155.192ZM214.65 155.192C213.839 155.192 213.109 154.995 212.458 154.6C211.818 154.205 211.311 153.667 210.938 152.984C210.565 152.301 210.378 151.539 210.378 150.696C210.378 149.832 210.565 149.064 210.938 148.392C211.311 147.709 211.818 147.171 212.458 146.776C213.109 146.381 213.839 146.184 214.65 146.184C215.365 146.184 215.999 146.339 216.554 146.648C217.109 146.947 217.546 147.352 217.866 147.864L217.626 148.232V142.888H219.13V155H217.674V153.16L217.866 153.416C217.567 153.981 217.13 154.419 216.554 154.728C215.989 155.037 215.354 155.192 214.65 155.192ZM214.778 153.752C215.322 153.752 215.807 153.619 216.234 153.352C216.661 153.085 216.997 152.723 217.242 152.264C217.498 151.795 217.626 151.272 217.626 150.696C217.626 150.109 217.498 149.587 217.242 149.128C216.997 148.659 216.661 148.291 216.234 148.024C215.807 147.757 215.322 147.624 214.778 147.624C214.245 147.624 213.759 147.763 213.322 148.04C212.895 148.307 212.559 148.669 212.314 149.128C212.069 149.576 211.946 150.099 211.946 150.696C211.946 151.272 212.069 151.795 212.314 152.264C212.559 152.723 212.895 153.085 213.322 153.352C213.749 153.619 214.234 153.752 214.778 153.752ZM221.113 155V146.376H222.569V147.96L222.409 147.736C222.612 147.245 222.921 146.883 223.337 146.648C223.753 146.403 224.26 146.28 224.857 146.28H225.385V147.688H224.633C224.025 147.688 223.535 147.88 223.161 148.264C222.788 148.637 222.601 149.171 222.601 149.864V155H221.113ZM226.387 155V146.376H227.875V155H226.387ZM226.387 145V143.08H227.875V145H226.387ZM232.264 155L228.888 146.376H230.552L233.256 153.672H232.68L235.4 146.376H237.064L233.672 155H232.264ZM238.075 155V146.376H239.563V155H238.075ZM238.075 145V143.08H239.563V145H238.075ZM241.552 155V146.376H243.008V148.056L242.768 147.912C242.981 147.368 243.323 146.947 243.792 146.648C244.272 146.339 244.832 146.184 245.472 146.184C246.091 146.184 246.64 146.323 247.12 146.6C247.611 146.877 247.995 147.261 248.272 147.752C248.56 148.243 248.704 148.797 248.704 149.416V155H247.2V149.896C247.2 149.416 247.115 149.011 246.944 148.68C246.773 148.349 246.528 148.093 246.208 147.912C245.899 147.72 245.541 147.624 245.136 147.624C244.731 147.624 244.368 147.72 244.048 147.912C243.739 148.093 243.493 148.355 243.312 148.696C243.131 149.027 243.04 149.427 243.04 149.896V155H241.552ZM254.625 158.52C254.017 158.52 253.452 158.424 252.929 158.232C252.417 158.04 251.975 157.773 251.601 157.432C251.239 157.101 250.961 156.712 250.769 156.264L252.161 155.624C252.311 156.029 252.593 156.371 253.009 156.648C253.436 156.936 253.969 157.08 254.609 157.08C255.1 157.08 255.543 156.984 255.937 156.792C256.343 156.611 256.663 156.333 256.897 155.96C257.132 155.597 257.249 155.155 257.249 154.632V152.696L257.521 152.984C257.223 153.571 256.791 154.019 256.225 154.328C255.671 154.637 255.057 154.792 254.385 154.792C253.575 154.792 252.849 154.605 252.209 154.232C251.569 153.848 251.068 153.331 250.705 152.68C250.343 152.019 250.161 151.288 250.161 150.488C250.161 149.677 250.343 148.947 250.705 148.296C251.068 147.645 251.564 147.133 252.193 146.76C252.833 146.376 253.559 146.184 254.369 146.184C255.041 146.184 255.649 146.339 256.193 146.648C256.748 146.947 257.191 147.363 257.521 147.896L257.297 148.296V146.376H258.753V154.632C258.753 155.379 258.577 156.045 258.225 156.632C257.873 157.219 257.383 157.677 256.753 158.008C256.135 158.349 255.425 158.52 254.625 158.52ZM254.513 153.352C255.025 153.352 255.484 153.224 255.889 152.968C256.305 152.712 256.636 152.371 256.881 151.944C257.127 151.507 257.249 151.021 257.249 150.488C257.249 149.965 257.127 149.485 256.881 149.048C256.636 148.611 256.305 148.264 255.889 148.008C255.484 147.752 255.025 147.624 254.513 147.624C253.991 147.624 253.516 147.752 253.089 148.008C252.663 148.264 252.327 148.611 252.081 149.048C251.847 149.475 251.729 149.955 251.729 150.488C251.729 151.021 251.847 151.507 252.081 151.944C252.327 152.371 252.657 152.712 253.073 152.968C253.5 153.224 253.98 153.352 254.513 153.352ZM265.714 155.192C265.148 155.192 264.647 155.091 264.21 154.888C263.783 154.675 263.447 154.387 263.202 154.024C262.956 153.651 262.834 153.224 262.834 152.744C262.834 152.285 262.93 151.875 263.122 151.512C263.324 151.139 263.634 150.824 264.05 150.568C264.476 150.312 265.01 150.131 265.65 150.024L268.85 149.496V150.744L265.986 151.224C265.431 151.32 265.026 151.496 264.77 151.752C264.524 152.008 264.402 152.323 264.402 152.696C264.402 153.048 264.54 153.341 264.818 153.576C265.106 153.811 265.463 153.928 265.89 153.928C266.434 153.928 266.903 153.816 267.298 153.592C267.703 153.357 268.018 153.043 268.242 152.648C268.476 152.253 268.594 151.816 268.594 151.336V149.144C268.594 148.675 268.418 148.296 268.066 148.008C267.724 147.709 267.271 147.56 266.706 147.56C266.215 147.56 265.778 147.688 265.394 147.944C265.02 148.189 264.743 148.52 264.562 148.936L263.266 148.264C263.426 147.869 263.682 147.517 264.034 147.208C264.386 146.888 264.796 146.637 265.266 146.456C265.735 146.275 266.226 146.184 266.738 146.184C267.399 146.184 267.98 146.312 268.482 146.568C268.983 146.813 269.372 147.16 269.65 147.608C269.938 148.045 270.082 148.557 270.082 149.144V155H268.626V153.368L268.898 153.464C268.716 153.805 268.471 154.104 268.162 154.36C267.852 154.616 267.49 154.819 267.074 154.968C266.658 155.117 266.204 155.192 265.714 155.192ZM26.064 179V171.8H24.416V170.376H26.064V169.768C26.064 169.149 26.1973 168.627 26.464 168.2C26.7413 167.773 27.104 167.448 27.552 167.224C28.0107 167 28.5173 166.888 29.072 166.888C29.1893 166.888 29.3173 166.899 29.456 166.92C29.6053 166.931 29.728 166.947 29.824 166.968V168.296C29.7387 168.275 29.6373 168.264 29.52 168.264C29.4027 168.253 29.312 168.248 29.248 168.248C28.7573 168.248 28.352 168.365 28.032 168.6C27.7227 168.835 27.568 169.224 27.568 169.768V170.376H29.616V171.8H27.568V179H26.064ZM34.2474 179.192C33.6287 179.192 33.0687 179.048 32.5674 178.76C32.0767 178.472 31.6927 178.072 31.4154 177.56C31.1487 177.037 31.0154 176.44 31.0154 175.768V170.376H32.5034V175.608C32.5034 176.035 32.5887 176.408 32.7594 176.728C32.9407 177.048 33.186 177.299 33.4954 177.48C33.8154 177.661 34.178 177.752 34.5834 177.752C34.9887 177.752 35.346 177.661 35.6554 177.48C35.9754 177.299 36.2207 177.037 36.3914 176.696C36.5727 176.355 36.6634 175.949 36.6634 175.48V170.376H38.1674V179H36.7114V177.32L36.9514 177.464C36.7487 178.008 36.402 178.435 35.9114 178.744C35.4314 179.043 34.8767 179.192 34.2474 179.192ZM43.6566 179.096C42.814 179.096 42.1633 178.856 41.7046 178.376C41.2566 177.896 41.0326 177.219 41.0326 176.344V171.8H39.4646V170.376H39.7846C40.1686 170.376 40.4726 170.259 40.6966 170.024C40.9206 169.789 41.0326 169.48 41.0326 169.096V168.392H42.5206V170.376H44.4566V171.8H42.5206V176.296C42.5206 176.584 42.5633 176.835 42.6486 177.048C42.7446 177.261 42.8993 177.432 43.1126 177.56C43.326 177.677 43.6086 177.736 43.9606 177.736C44.0353 177.736 44.126 177.731 44.2326 177.72C44.35 177.709 44.4566 177.699 44.5526 177.688V179C44.414 179.032 44.2593 179.053 44.0886 179.064C43.918 179.085 43.774 179.096 43.6566 179.096ZM49.2324 179.192C48.6137 179.192 48.0537 179.048 47.5524 178.76C47.0617 178.472 46.6777 178.072 46.4004 177.56C46.1337 177.037 46.0004 176.44 46.0004 175.768V170.376H47.4884V175.608C47.4884 176.035 47.5737 176.408 47.7444 176.728C47.9257 177.048 48.171 177.299 48.4804 177.48C48.8004 177.661 49.163 177.752 49.5684 177.752C49.9737 177.752 50.331 177.661 50.6404 177.48C50.9604 177.299 51.2057 177.037 51.3764 176.696C51.5577 176.355 51.6484 175.949 51.6484 175.48V170.376H53.1524V179H51.6964V177.32L51.9364 177.464C51.7337 178.008 51.387 178.435 50.8964 178.744C50.4164 179.043 49.8617 179.192 49.2324 179.192ZM55.1376 179V170.376H56.5936V171.96L56.4336 171.736C56.6363 171.245 56.9456 170.883 57.3616 170.648C57.7776 170.403 58.2843 170.28 58.8816 170.28H59.4096V171.688H58.6576C58.0496 171.688 57.559 171.88 57.1856 172.264C56.8123 172.637 56.6256 173.171 56.6256 173.864V179H55.1376ZM60.4114 179V170.376H61.8994V179H60.4114ZM60.4114 169V167.08H61.8994V169H60.4114ZM66.9763 179.192C66.1123 179.192 65.3603 178.979 64.7203 178.552C64.0803 178.125 63.6269 177.549 63.3603 176.824L64.5443 176.248C64.7896 176.76 65.1256 177.165 65.5523 177.464C65.9789 177.763 66.4536 177.912 66.9763 177.912C67.4456 177.912 67.8349 177.8 68.1443 177.576C68.4536 177.352 68.6083 177.059 68.6083 176.696C68.6083 176.44 68.5336 176.237 68.3843 176.088C68.2456 175.928 68.0749 175.805 67.8723 175.72C67.6696 175.624 67.4829 175.555 67.3123 175.512L66.0163 175.144C65.2376 174.92 64.6669 174.6 64.3043 174.184C63.9523 173.768 63.7763 173.283 63.7763 172.728C63.7763 172.216 63.9043 171.773 64.1603 171.4C64.4269 171.016 64.7843 170.717 65.2323 170.504C65.6909 170.291 66.2029 170.184 66.7683 170.184C67.5256 170.184 68.2029 170.376 68.8003 170.76C69.4083 171.144 69.8403 171.683 70.0963 172.376L68.8803 172.936C68.6883 172.488 68.4003 172.136 68.0163 171.88C67.6323 171.613 67.2003 171.48 66.7203 171.48C66.2829 171.48 65.9363 171.592 65.6803 171.816C65.4243 172.029 65.2963 172.301 65.2963 172.632C65.2963 172.877 65.3603 173.08 65.4883 173.24C65.6163 173.389 65.7709 173.507 65.9523 173.592C66.1336 173.667 66.3096 173.731 66.4803 173.784L67.8883 174.2C68.5923 174.403 69.1363 174.717 69.5203 175.144C69.9149 175.571 70.1123 176.083 70.1123 176.68C70.1123 177.16 69.9789 177.592 69.7123 177.976C69.4456 178.36 69.0776 178.659 68.6083 178.872C68.1389 179.085 67.5949 179.192 66.9763 179.192ZM75.2441 179.096C74.4015 179.096 73.7508 178.856 73.2921 178.376C72.8441 177.896 72.6201 177.219 72.6201 176.344V171.8H71.0521V170.376H71.3721C71.7561 170.376 72.0601 170.259 72.2841 170.024C72.5081 169.789 72.6201 169.48 72.6201 169.096V168.392H74.1081V170.376H76.0441V171.8H74.1081V176.296C74.1081 176.584 74.1508 176.835 74.2361 177.048C74.3321 177.261 74.4868 177.432 74.7001 177.56C74.9135 177.677 75.1961 177.736 75.5481 177.736C75.6228 177.736 75.7135 177.731 75.8201 177.72C75.9375 177.709 76.0441 177.699 76.1401 177.688V179C76.0015 179.032 75.8468 179.053 75.6761 179.064C75.5055 179.085 75.3615 179.096 75.2441 179.096ZM77.7639 179V170.376H79.2519V179H77.7639ZM77.7639 169V167.08H79.2519V169H77.7639ZM85.2407 179.192C84.3981 179.192 83.6461 178.995 82.9847 178.6C82.3341 178.205 81.8221 177.667 81.4487 176.984C81.0754 176.301 80.8887 175.533 80.8887 174.68C80.8887 173.816 81.0754 173.048 81.4487 172.376C81.8221 171.704 82.3341 171.171 82.9847 170.776C83.6461 170.381 84.3981 170.184 85.2407 170.184C85.8061 170.184 86.3341 170.285 86.8247 170.488C87.3154 170.691 87.7474 170.963 88.1207 171.304C88.4941 171.645 88.7661 172.045 88.9367 172.504L87.6087 173.144C87.4061 172.696 87.0967 172.333 86.6807 172.056C86.2647 171.768 85.7847 171.624 85.2407 171.624C84.7181 171.624 84.2434 171.757 83.8167 172.024C83.4007 172.291 83.0701 172.653 82.8247 173.112C82.5794 173.571 82.4567 174.099 82.4567 174.696C82.4567 175.272 82.5794 175.795 82.8247 176.264C83.0701 176.723 83.4007 177.085 83.8167 177.352C84.2434 177.619 84.7181 177.752 85.2407 177.752C85.7847 177.752 86.2647 177.613 86.6807 177.336C87.0967 177.048 87.4061 176.669 87.6087 176.2L88.9367 176.872C88.7661 177.32 88.4941 177.72 88.1207 178.072C87.7474 178.413 87.3154 178.685 86.8247 178.888C86.3341 179.091 85.8061 179.192 85.2407 179.192ZM95.535 179.192C94.9697 179.192 94.4683 179.091 94.031 178.888C93.6043 178.675 93.2683 178.387 93.023 178.024C92.7777 177.651 92.655 177.224 92.655 176.744C92.655 176.285 92.751 175.875 92.943 175.512C93.1457 175.139 93.455 174.824 93.871 174.568C94.2977 174.312 94.831 174.131 95.471 174.024L98.671 173.496V174.744L95.807 175.224C95.2523 175.32 94.847 175.496 94.591 175.752C94.3457 176.008 94.223 176.323 94.223 176.696C94.223 177.048 94.3617 177.341 94.639 177.576C94.927 177.811 95.2843 177.928 95.711 177.928C96.255 177.928 96.7243 177.816 97.119 177.592C97.5243 177.357 97.839 177.043 98.063 176.648C98.2977 176.253 98.415 175.816 98.415 175.336V173.144C98.415 172.675 98.239 172.296 97.887 172.008C97.5457 171.709 97.0923 171.56 96.527 171.56C96.0363 171.56 95.599 171.688 95.215 171.944C94.8417 172.189 94.5643 172.52 94.383 172.936L93.087 172.264C93.247 171.869 93.503 171.517 93.855 171.208C94.207 170.888 94.6177 170.637 95.087 170.456C95.5563 170.275 96.047 170.184 96.559 170.184C97.2203 170.184 97.8017 170.312 98.303 170.568C98.8043 170.813 99.1937 171.16 99.471 171.608C99.759 172.045 99.903 172.557 99.903 173.144V179H98.447V177.368L98.719 177.464C98.5377 177.805 98.2923 178.104 97.983 178.36C97.6737 178.616 97.311 178.819 96.895 178.968C96.479 179.117 96.0257 179.192 95.535 179.192ZM101.89 179V170.376H103.346V172.056L103.106 171.912C103.319 171.368 103.661 170.947 104.13 170.648C104.61 170.339 105.17 170.184 105.81 170.184C106.429 170.184 106.978 170.323 107.458 170.6C107.949 170.877 108.333 171.261 108.61 171.752C108.898 172.243 109.042 172.797 109.042 173.416V179H107.538V173.896C107.538 173.416 107.453 173.011 107.282 172.68C107.111 172.349 106.866 172.093 106.546 171.912C106.237 171.72 105.879 171.624 105.474 171.624C105.069 171.624 104.706 171.72 104.386 171.912C104.077 172.093 103.831 172.355 103.65 172.696C103.469 173.027 103.378 173.427 103.378 173.896V179H101.89ZM114.771 179.192C113.961 179.192 113.23 178.995 112.579 178.6C111.939 178.205 111.433 177.667 111.059 176.984C110.686 176.301 110.499 175.539 110.499 174.696C110.499 173.832 110.686 173.064 111.059 172.392C111.433 171.709 111.939 171.171 112.579 170.776C113.23 170.381 113.961 170.184 114.771 170.184C115.486 170.184 116.121 170.339 116.675 170.648C117.23 170.947 117.667 171.352 117.987 171.864L117.747 172.232V166.888H119.251V179H117.795V177.16L117.987 177.416C117.689 177.981 117.251 178.419 116.675 178.728C116.11 179.037 115.475 179.192 114.771 179.192ZM114.899 177.752C115.443 177.752 115.929 177.619 116.355 177.352C116.782 177.085 117.118 176.723 117.363 176.264C117.619 175.795 117.747 175.272 117.747 174.696C117.747 174.109 117.619 173.587 117.363 173.128C117.118 172.659 116.782 172.291 116.355 172.024C115.929 171.757 115.443 171.624 114.899 171.624C114.366 171.624 113.881 171.763 113.443 172.04C113.017 172.307 112.681 172.669 112.435 173.128C112.19 173.576 112.067 174.099 112.067 174.696C112.067 175.272 112.19 175.795 112.435 176.264C112.681 176.723 113.017 177.085 113.443 177.352C113.87 177.619 114.355 177.752 114.899 177.752ZM127.648 179.192C126.816 179.192 126.075 178.995 125.424 178.6C124.773 178.205 124.261 177.667 123.888 176.984C123.515 176.291 123.328 175.517 123.328 174.664C123.328 173.8 123.509 173.032 123.872 172.36C124.245 171.688 124.747 171.16 125.376 170.776C126.016 170.381 126.731 170.184 127.52 170.184C128.16 170.184 128.725 170.301 129.216 170.536C129.717 170.76 130.139 171.069 130.48 171.464C130.832 171.848 131.099 172.291 131.28 172.792C131.472 173.283 131.568 173.795 131.568 174.328C131.568 174.445 131.557 174.579 131.536 174.728C131.525 174.867 131.509 175 131.488 175.128H124.416V173.848H130.624L129.92 174.424C130.016 173.869 129.963 173.373 129.76 172.936C129.557 172.499 129.259 172.152 128.864 171.896C128.469 171.64 128.021 171.512 127.52 171.512C127.019 171.512 126.56 171.64 126.144 171.896C125.728 172.152 125.403 172.52 125.168 173C124.944 173.469 124.853 174.029 124.896 174.68C124.853 175.309 124.949 175.864 125.184 176.344C125.429 176.813 125.771 177.181 126.208 177.448C126.656 177.704 127.141 177.832 127.664 177.832C128.24 177.832 128.725 177.699 129.12 177.432C129.515 177.165 129.835 176.824 130.08 176.408L131.328 177.048C131.157 177.443 130.891 177.805 130.528 178.136C130.176 178.456 129.755 178.712 129.264 178.904C128.784 179.096 128.245 179.192 127.648 179.192ZM133.188 179V166.888H134.676V179H133.188ZM140.633 179.192C139.801 179.192 139.06 178.995 138.409 178.6C137.758 178.205 137.246 177.667 136.873 176.984C136.5 176.291 136.313 175.517 136.313 174.664C136.313 173.8 136.494 173.032 136.857 172.36C137.23 171.688 137.732 171.16 138.361 170.776C139.001 170.381 139.716 170.184 140.505 170.184C141.145 170.184 141.71 170.301 142.201 170.536C142.702 170.76 143.124 171.069 143.465 171.464C143.817 171.848 144.084 172.291 144.265 172.792C144.457 173.283 144.553 173.795 144.553 174.328C144.553 174.445 144.542 174.579 144.521 174.728C144.51 174.867 144.494 175 144.473 175.128H137.401V173.848H143.609L142.905 174.424C143.001 173.869 142.948 173.373 142.745 172.936C142.542 172.499 142.244 172.152 141.849 171.896C141.454 171.64 141.006 171.512 140.505 171.512C140.004 171.512 139.545 171.64 139.129 171.896C138.713 172.152 138.388 172.52 138.153 173C137.929 173.469 137.838 174.029 137.881 174.68C137.838 175.309 137.934 175.864 138.169 176.344C138.414 176.813 138.756 177.181 139.193 177.448C139.641 177.704 140.126 177.832 140.649 177.832C141.225 177.832 141.71 177.699 142.105 177.432C142.5 177.165 142.82 176.824 143.065 176.408L144.313 177.048C144.142 177.443 143.876 177.805 143.513 178.136C143.161 178.456 142.74 178.712 142.249 178.904C141.769 179.096 141.23 179.192 140.633 179.192ZM150.285 182.52C149.677 182.52 149.112 182.424 148.589 182.232C148.077 182.04 147.635 181.773 147.261 181.432C146.899 181.101 146.621 180.712 146.429 180.264L147.821 179.624C147.971 180.029 148.253 180.371 148.669 180.648C149.096 180.936 149.629 181.08 150.269 181.08C150.76 181.08 151.203 180.984 151.597 180.792C152.003 180.611 152.323 180.333 152.557 179.96C152.792 179.597 152.909 179.155 152.909 178.632V176.696L153.181 176.984C152.883 177.571 152.451 178.019 151.885 178.328C151.331 178.637 150.717 178.792 150.045 178.792C149.235 178.792 148.509 178.605 147.869 178.232C147.229 177.848 146.728 177.331 146.365 176.68C146.003 176.019 145.821 175.288 145.821 174.488C145.821 173.677 146.003 172.947 146.365 172.296C146.728 171.645 147.224 171.133 147.853 170.76C148.493 170.376 149.219 170.184 150.029 170.184C150.701 170.184 151.309 170.339 151.853 170.648C152.408 170.947 152.851 171.363 153.181 171.896L152.957 172.296V170.376H154.413V178.632C154.413 179.379 154.237 180.045 153.885 180.632C153.533 181.219 153.043 181.677 152.413 182.008C151.795 182.349 151.085 182.52 150.285 182.52ZM150.173 177.352C150.685 177.352 151.144 177.224 151.549 176.968C151.965 176.712 152.296 176.371 152.541 175.944C152.787 175.507 152.909 175.021 152.909 174.488C152.909 173.965 152.787 173.485 152.541 173.048C152.296 172.611 151.965 172.264 151.549 172.008C151.144 171.752 150.685 171.624 150.173 171.624C149.651 171.624 149.176 171.752 148.749 172.008C148.323 172.264 147.987 172.611 147.741 173.048C147.507 173.475 147.389 173.955 147.389 174.488C147.389 175.021 147.507 175.507 147.741 175.944C147.987 176.371 148.317 176.712 148.733 176.968C149.16 177.224 149.64 177.352 150.173 177.352ZM158.928 179.192C158.363 179.192 157.861 179.091 157.424 178.888C156.997 178.675 156.661 178.387 156.416 178.024C156.171 177.651 156.048 177.224 156.048 176.744C156.048 176.285 156.144 175.875 156.336 175.512C156.539 175.139 156.848 174.824 157.264 174.568C157.691 174.312 158.224 174.131 158.864 174.024L162.064 173.496V174.744L159.2 175.224C158.645 175.32 158.24 175.496 157.984 175.752C157.739 176.008 157.616 176.323 157.616 176.696C157.616 177.048 157.755 177.341 158.032 177.576C158.32 177.811 158.677 177.928 159.104 177.928C159.648 177.928 160.117 177.816 160.512 177.592C160.917 177.357 161.232 177.043 161.456 176.648C161.691 176.253 161.808 175.816 161.808 175.336V173.144C161.808 172.675 161.632 172.296 161.28 172.008C160.939 171.709 160.485 171.56 159.92 171.56C159.429 171.56 158.992 171.688 158.608 171.944C158.235 172.189 157.957 172.52 157.776 172.936L156.48 172.264C156.64 171.869 156.896 171.517 157.248 171.208C157.6 170.888 158.011 170.637 158.48 170.456C158.949 170.275 159.44 170.184 159.952 170.184C160.613 170.184 161.195 170.312 161.696 170.568C162.197 170.813 162.587 171.16 162.864 171.608C163.152 172.045 163.296 172.557 163.296 173.144V179H161.84V177.368L162.112 177.464C161.931 177.805 161.685 178.104 161.376 178.36C161.067 178.616 160.704 178.819 160.288 178.968C159.872 179.117 159.419 179.192 158.928 179.192ZM165.283 179V170.376H166.739V172.056L166.499 171.912C166.713 171.368 167.054 170.947 167.523 170.648C168.003 170.339 168.563 170.184 169.203 170.184C169.822 170.184 170.371 170.323 170.851 170.6C171.342 170.877 171.726 171.261 172.003 171.752C172.291 172.243 172.435 172.797 172.435 173.416V179H170.931V173.896C170.931 173.416 170.846 173.011 170.675 172.68C170.505 172.349 170.259 172.093 169.939 171.912C169.63 171.72 169.273 171.624 168.867 171.624C168.462 171.624 168.099 171.72 167.779 171.912C167.47 172.093 167.225 172.355 167.043 172.696C166.862 173.027 166.771 173.427 166.771 173.896V179H165.283ZM177.748 179.096C176.906 179.096 176.255 178.856 175.796 178.376C175.348 177.896 175.124 177.219 175.124 176.344V171.8H173.556V170.376H173.876C174.26 170.376 174.564 170.259 174.788 170.024C175.012 169.789 175.124 169.48 175.124 169.096V168.392H176.612V170.376H178.548V171.8H176.612V176.296C176.612 176.584 176.655 176.835 176.74 177.048C176.836 177.261 176.991 177.432 177.204 177.56C177.418 177.677 177.7 177.736 178.052 177.736C178.127 177.736 178.218 177.731 178.324 177.72C178.442 177.709 178.548 177.699 178.644 177.688V179C178.506 179.032 178.351 179.053 178.18 179.064C178.01 179.085 177.866 179.096 177.748 179.096ZM185.802 179.192C184.938 179.192 184.186 178.979 183.546 178.552C182.906 178.125 182.453 177.549 182.186 176.824L183.37 176.248C183.615 176.76 183.951 177.165 184.378 177.464C184.805 177.763 185.279 177.912 185.802 177.912C186.271 177.912 186.661 177.8 186.97 177.576C187.279 177.352 187.434 177.059 187.434 176.696C187.434 176.44 187.359 176.237 187.21 176.088C187.071 175.928 186.901 175.805 186.698 175.72C186.495 175.624 186.309 175.555 186.138 175.512L184.842 175.144C184.063 174.92 183.493 174.6 183.13 174.184C182.778 173.768 182.602 173.283 182.602 172.728C182.602 172.216 182.73 171.773 182.986 171.4C183.253 171.016 183.61 170.717 184.058 170.504C184.517 170.291 185.029 170.184 185.594 170.184C186.351 170.184 187.029 170.376 187.626 170.76C188.234 171.144 188.666 171.683 188.922 172.376L187.706 172.936C187.514 172.488 187.226 172.136 186.842 171.88C186.458 171.613 186.026 171.48 185.546 171.48C185.109 171.48 184.762 171.592 184.506 171.816C184.25 172.029 184.122 172.301 184.122 172.632C184.122 172.877 184.186 173.08 184.314 173.24C184.442 173.389 184.597 173.507 184.778 173.592C184.959 173.667 185.135 173.731 185.306 173.784L186.714 174.2C187.418 174.403 187.962 174.717 188.346 175.144C188.741 175.571 188.938 176.083 188.938 176.68C188.938 177.16 188.805 177.592 188.538 177.976C188.271 178.36 187.903 178.659 187.434 178.872C186.965 179.085 186.421 179.192 185.802 179.192ZM190.566 182.2V170.376H192.022V172.232L191.83 171.864C192.15 171.352 192.587 170.947 193.142 170.648C193.696 170.339 194.331 170.184 195.046 170.184C195.856 170.184 196.582 170.381 197.222 170.776C197.872 171.171 198.384 171.709 198.758 172.392C199.131 173.064 199.318 173.832 199.318 174.696C199.318 175.539 199.131 176.301 198.758 176.984C198.384 177.667 197.872 178.205 197.222 178.6C196.582 178.995 195.851 179.192 195.03 179.192C194.336 179.192 193.702 179.037 193.126 178.728C192.56 178.419 192.123 177.981 191.814 177.416L192.054 177.16V182.2H190.566ZM194.918 177.752C195.462 177.752 195.947 177.619 196.374 177.352C196.8 177.085 197.131 176.723 197.366 176.264C197.611 175.795 197.734 175.272 197.734 174.696C197.734 174.099 197.611 173.576 197.366 173.128C197.131 172.669 196.8 172.307 196.374 172.04C195.947 171.763 195.462 171.624 194.918 171.624C194.374 171.624 193.883 171.757 193.446 172.024C193.019 172.291 192.678 172.659 192.422 173.128C192.176 173.587 192.054 174.109 192.054 174.696C192.054 175.272 192.176 175.795 192.422 176.264C192.678 176.723 193.019 177.085 193.446 177.352C193.883 177.619 194.374 177.752 194.918 177.752ZM205.045 179.192C204.213 179.192 203.461 179 202.789 178.616C202.117 178.221 201.584 177.683 201.189 177C200.794 176.317 200.597 175.544 200.597 174.68C200.597 173.816 200.789 173.048 201.173 172.376C201.568 171.704 202.101 171.171 202.773 170.776C203.445 170.381 204.202 170.184 205.045 170.184C205.877 170.184 206.629 170.381 207.301 170.776C207.973 171.16 208.501 171.688 208.885 172.36C209.28 173.032 209.477 173.805 209.477 174.68C209.477 175.555 209.274 176.333 208.869 177.016C208.464 177.688 207.925 178.221 207.253 178.616C206.592 179 205.856 179.192 205.045 179.192ZM205.045 177.752C205.578 177.752 206.058 177.619 206.485 177.352C206.922 177.085 207.264 176.717 207.509 176.248C207.765 175.779 207.893 175.256 207.893 174.68C207.893 174.093 207.765 173.576 207.509 173.128C207.264 172.669 206.922 172.307 206.485 172.04C206.058 171.763 205.578 171.624 205.045 171.624C204.501 171.624 204.01 171.763 203.573 172.04C203.146 172.307 202.805 172.669 202.549 173.128C202.293 173.576 202.165 174.093 202.165 174.68C202.165 175.256 202.293 175.779 202.549 176.248C202.805 176.717 203.146 177.085 203.573 177.352C204.01 177.619 204.501 177.752 205.045 177.752ZM211.098 179V170.376H212.554V171.96L212.394 171.736C212.596 171.245 212.906 170.883 213.322 170.648C213.738 170.403 214.244 170.28 214.842 170.28H215.37V171.688H214.618C214.01 171.688 213.519 171.88 213.146 172.264C212.772 172.637 212.586 173.171 212.586 173.864V179H211.098ZM219.954 179.096C219.111 179.096 218.46 178.856 218.002 178.376C217.554 177.896 217.33 177.219 217.33 176.344V171.8H215.762V170.376H216.082C216.466 170.376 216.77 170.259 216.994 170.024C217.218 169.789 217.33 169.48 217.33 169.096V168.392H218.818V170.376H220.754V171.8H218.818V176.296C218.818 176.584 218.86 176.835 218.946 177.048C219.042 177.261 219.196 177.432 219.41 177.56C219.623 177.677 219.906 177.736 220.258 177.736C220.332 177.736 220.423 177.731 220.53 177.72C220.647 177.709 220.754 177.699 220.85 177.688V179C220.711 179.032 220.556 179.053 220.386 179.064C220.215 179.085 220.071 179.096 219.954 179.096ZM225.561 179.192C224.697 179.192 223.945 178.979 223.305 178.552C222.665 178.125 222.212 177.549 221.945 176.824L223.129 176.248C223.375 176.76 223.711 177.165 224.137 177.464C224.564 177.763 225.039 177.912 225.561 177.912C226.031 177.912 226.42 177.8 226.729 177.576C227.039 177.352 227.193 177.059 227.193 176.696C227.193 176.44 227.119 176.237 226.969 176.088C226.831 175.928 226.66 175.805 226.457 175.72C226.255 175.624 226.068 175.555 225.897 175.512L224.601 175.144C223.823 174.92 223.252 174.6 222.889 174.184C222.537 173.768 222.361 173.283 222.361 172.728C222.361 172.216 222.489 171.773 222.745 171.4C223.012 171.016 223.369 170.717 223.817 170.504C224.276 170.291 224.788 170.184 225.353 170.184C226.111 170.184 226.788 170.376 227.385 170.76C227.993 171.144 228.425 171.683 228.681 172.376L227.465 172.936C227.273 172.488 226.985 172.136 226.601 171.88C226.217 171.613 225.785 171.48 225.305 171.48C224.868 171.48 224.521 171.592 224.265 171.816C224.009 172.029 223.881 172.301 223.881 172.632C223.881 172.877 223.945 173.08 224.073 173.24C224.201 173.389 224.356 173.507 224.537 173.592C224.719 173.667 224.895 173.731 225.065 173.784L226.473 174.2C227.177 174.403 227.721 174.717 228.105 175.144C228.5 175.571 228.697 176.083 228.697 176.68C228.697 177.16 228.564 177.592 228.297 177.976C228.031 178.36 227.663 178.659 227.193 178.872C226.724 179.085 226.18 179.192 225.561 179.192ZM236.771 179.192C235.928 179.192 235.176 178.995 234.515 178.6C233.864 178.205 233.352 177.667 232.979 176.984C232.605 176.301 232.419 175.533 232.419 174.68C232.419 173.816 232.605 173.048 232.979 172.376C233.352 171.704 233.864 171.171 234.515 170.776C235.176 170.381 235.928 170.184 236.771 170.184C237.336 170.184 237.864 170.285 238.355 170.488C238.845 170.691 239.277 170.963 239.651 171.304C240.024 171.645 240.296 172.045 240.467 172.504L239.139 173.144C238.936 172.696 238.627 172.333 238.211 172.056C237.795 171.768 237.315 171.624 236.771 171.624C236.248 171.624 235.773 171.757 235.347 172.024C234.931 172.291 234.6 172.653 234.355 173.112C234.109 173.571 233.987 174.099 233.987 174.696C233.987 175.272 234.109 175.795 234.355 176.264C234.6 176.723 234.931 177.085 235.347 177.352C235.773 177.619 236.248 177.752 236.771 177.752C237.315 177.752 237.795 177.613 238.211 177.336C238.627 177.048 238.936 176.669 239.139 176.2L240.467 176.872C240.296 177.32 240.024 177.72 239.651 178.072C239.277 178.413 238.845 178.685 238.355 178.888C237.864 179.091 237.336 179.192 236.771 179.192ZM244.51 179.192C243.945 179.192 243.443 179.091 243.006 178.888C242.579 178.675 242.243 178.387 241.998 178.024C241.753 177.651 241.63 177.224 241.63 176.744C241.63 176.285 241.726 175.875 241.918 175.512C242.121 175.139 242.43 174.824 242.846 174.568C243.273 174.312 243.806 174.131 244.446 174.024L247.646 173.496V174.744L244.782 175.224C244.227 175.32 243.822 175.496 243.566 175.752C243.321 176.008 243.198 176.323 243.198 176.696C243.198 177.048 243.337 177.341 243.614 177.576C243.902 177.811 244.259 177.928 244.686 177.928C245.23 177.928 245.699 177.816 246.094 177.592C246.499 177.357 246.814 177.043 247.038 176.648C247.273 176.253 247.39 175.816 247.39 175.336V173.144C247.39 172.675 247.214 172.296 246.862 172.008C246.521 171.709 246.067 171.56 245.502 171.56C245.011 171.56 244.574 171.688 244.19 171.944C243.817 172.189 243.539 172.52 243.358 172.936L242.062 172.264C242.222 171.869 242.478 171.517 242.83 171.208C243.182 170.888 243.593 170.637 244.062 170.456C244.531 170.275 245.022 170.184 245.534 170.184C246.195 170.184 246.777 170.312 247.278 170.568C247.779 170.813 248.169 171.16 248.446 171.608C248.734 172.045 248.878 172.557 248.878 173.144V179H247.422V177.368L247.694 177.464C247.513 177.805 247.267 178.104 246.958 178.36C246.649 178.616 246.286 178.819 245.87 178.968C245.454 179.117 245.001 179.192 244.51 179.192ZM250.865 179V170.376H252.321V171.96L252.161 171.736C252.364 171.245 252.673 170.883 253.089 170.648C253.505 170.403 254.012 170.28 254.609 170.28H255.137V171.688H254.385C253.777 171.688 253.286 171.88 252.913 172.264C252.54 172.637 252.353 173.171 252.353 173.864V179H250.865Z" fill="white"/>
</g>
<defs>
<clipPath id="clip0_195_1566">
<rect width="621" height="372" rx="10" fill="white"/>
</clipPath>
</defs>
</svg>
