<svg width="683" height="360" viewBox="0 0 683 360" fill="none" xmlns="http://www.w3.org/2000/svg">
<g clip-path="url(#clip0_195_1508)">
<rect width="683" height="360" rx="10" fill="#3563E9"/>
<path d="M-24.5541 300L-49.9828 240H-24.5541H0.874671L26.3034 300L0.874671 360H-24.5541H-49.9828L-24.5541 300Z" fill="white" fill-opacity="0.06"/>
<path d="M68.0066 300L42.5778 240H68.0066H93.4354L118.864 300L93.4354 360H68.0066H42.5778L68.0066 300Z" fill="white" fill-opacity="0.06"/>
<path d="M160.567 300L135.139 240H160.567H185.996L211.425 300L185.996 360H160.567H135.139L160.567 300Z" fill="white" fill-opacity="0.06"/>
<path d="M253.128 300L227.699 240H253.128H278.557L303.985 300L278.557 360H253.128H227.699L253.128 300Z" fill="white" fill-opacity="0.06"/>
<path d="M345.689 300L320.26 240H345.689H371.117L396.546 300L371.117 360H345.689H320.26L345.689 300Z" fill="white" fill-opacity="0.06"/>
<path d="M438.249 300L412.821 240H438.249H463.678L489.107 300L463.678 360H438.249H412.821L438.249 300Z" fill="white" fill-opacity="0.06"/>
<path d="M530.81 300L505.381 240H530.81H556.239L581.668 300L556.239 360H530.81H505.381L530.81 300Z" fill="white" fill-opacity="0.06"/>
<path d="M623.371 300L597.942 240H623.371H648.799L674.228 300L648.799 360H623.371H597.942L623.371 300Z" fill="white" fill-opacity="0.06"/>
<path d="M21.2177 180L-4.21109 120H21.2177H46.6464L72.0752 180L46.6464 240H21.2177H-4.21109L21.2177 180Z" fill="white" fill-opacity="0.06"/>
<path d="M113.778 180L88.3496 120H113.778H139.207L164.636 180L139.207 240H113.778H88.3496L113.778 180Z" fill="white" fill-opacity="0.06"/>
<path d="M206.339 180L180.91 120H206.339H231.768L257.197 180L231.768 240H206.339H180.91L206.339 180Z" fill="white" fill-opacity="0.06"/>
<path d="M298.9 180L273.471 120H298.9H324.328L349.757 180L324.328 240H298.9H273.471L298.9 180Z" fill="white" fill-opacity="0.06"/>
<path d="M391.46 180L366.032 120H391.46H416.889L442.318 180L416.889 240H391.46H366.032L391.46 180Z" fill="white" fill-opacity="0.06"/>
<path d="M484.021 180L458.592 120H484.021H509.45L534.879 180L509.45 240H484.021H458.592L484.021 180Z" fill="white" fill-opacity="0.06"/>
<path d="M576.582 180L551.153 120H576.582H602.011L627.439 180L602.011 240H576.582H551.153L576.582 180Z" fill="white" fill-opacity="0.06"/>
<path d="M669.143 180L643.714 120H669.143H694.571L720 180L694.571 240H669.143H643.714L669.143 180Z" fill="white" fill-opacity="0.06"/>
<path d="M-25.5712 60L-51 0H-25.5712H-0.14248L25.2863 60L-0.14248 120H-25.5712H-51L-25.5712 60Z" fill="white" fill-opacity="0.06"/>
<path d="M66.9894 60L41.5607 0H66.9894H92.4182L117.847 60L92.4182 120H66.9894H41.5607L66.9894 60Z" fill="white" fill-opacity="0.06"/>
<path d="M159.55 60L134.121 0H159.55H184.979L210.408 60L184.979 120H159.55H134.121L159.55 60Z" fill="white" fill-opacity="0.06"/>
<path d="M252.111 60L226.682 0H252.111H277.54L302.968 60L277.54 120H252.111H226.682L252.111 60Z" fill="white" fill-opacity="0.06"/>
<path d="M344.671 60L319.243 0H344.671H370.1L395.529 60L370.1 120H344.671H319.243L344.671 60Z" fill="white" fill-opacity="0.06"/>
<path d="M437.232 60L411.803 0H437.232H462.661L488.09 60L462.661 120H437.232H411.803L437.232 60Z" fill="white" fill-opacity="0.06"/>
<path d="M529.793 60L504.364 0H529.793H555.222L580.65 60L555.222 120H529.793H504.364L529.793 60Z" fill="white" fill-opacity="0.06"/>
<path d="M622.354 60L596.925 0H622.354H647.782L673.211 60L647.782 120H622.354H596.925L622.354 60Z" fill="white" fill-opacity="0.06"/>
</g>
<defs>
<clipPath id="clip0_195_1508">
<rect width="683" height="360" rx="10" fill="white"/>
</clipPath>
</defs>
</svg>
