<svg width="78" height="23" viewBox="0 0 78 23" fill="none" xmlns="http://www.w3.org/2000/svg">
<path d="M9.888 22.192C7.92533 22.192 6.4 21.6587 5.312 20.592C4.24533 19.504 3.712 17.9787 3.712 16.016V8.336H0.704V4.592H1.024C1.87733 4.592 2.53867 4.368 3.008 3.92C3.47733 3.472 3.712 2.82133 3.712 1.968V0.623999H7.904V4.592H11.904V8.336H7.904V15.792C7.904 16.368 8 16.8587 8.192 17.264C8.40533 17.6693 8.72533 17.9787 9.152 18.192C9.6 18.4053 10.1653 18.512 10.848 18.512C10.9973 18.512 11.168 18.5013 11.36 18.48C11.5733 18.4587 11.776 18.4373 11.968 18.416V22C11.6693 22.0427 11.328 22.0853 10.944 22.128C10.56 22.1707 10.208 22.192 9.888 22.192ZM14.2108 22V4.592H18.1468V8.464L17.8268 7.888C18.2321 6.58667 18.8614 5.68 19.7148 5.168C20.5894 4.656 21.6348 4.4 22.8508 4.4H23.8748V8.112H22.3708C21.1761 8.112 20.2161 8.48533 19.4908 9.232C18.7654 9.95733 18.4028 10.9813 18.4028 12.304V22H14.2108ZM30.4995 22.384C29.2835 22.384 28.2275 22.1813 27.3315 21.776C26.4355 21.3707 25.7422 20.7947 25.2515 20.048C24.7608 19.28 24.5155 18.3947 24.5155 17.392C24.5155 16.432 24.7288 15.5787 25.1555 14.832C25.5822 14.064 26.2435 13.424 27.1395 12.912C28.0355 12.4 29.1662 12.0373 30.5315 11.824L36.2275 10.896V14.096L31.3315 14.928C30.4995 15.0773 29.8808 15.344 29.4755 15.728C29.0702 16.112 28.8675 16.6133 28.8675 17.232C28.8675 17.8293 29.0915 18.3093 29.5395 18.672C30.0088 19.0133 30.5848 19.184 31.2675 19.184C32.1422 19.184 32.9102 19.0027 33.5715 18.64C34.2542 18.256 34.7768 17.7333 35.1395 17.072C35.5235 16.4107 35.7155 15.6853 35.7155 14.896V10.416C35.7155 9.66933 35.4168 9.05067 34.8195 8.56C34.2435 8.048 33.4755 7.792 32.5155 7.792C31.6195 7.792 30.8195 8.03733 30.1155 8.528C29.4328 8.99733 28.9315 9.62667 28.6115 10.416L25.1875 8.752C25.5288 7.83467 26.0622 7.04533 26.7875 6.384C27.5342 5.70133 28.4088 5.168 29.4115 4.784C30.4142 4.4 31.5022 4.208 32.6755 4.208C34.1048 4.208 35.3635 4.47467 36.4515 5.008C37.5395 5.52 38.3822 6.24533 38.9795 7.184C39.5982 8.10133 39.9075 9.17867 39.9075 10.416V22H35.9395V19.024L36.8355 18.96C36.3875 19.7067 35.8542 20.336 35.2355 20.848C34.6168 21.3387 33.9128 21.7227 33.1235 22C32.3342 22.256 31.4595 22.384 30.4995 22.384ZM47.7575 22L40.9095 4.592H45.4855L50.4455 18.288H48.7495L53.7415 4.592H58.3175L51.4695 22H47.7575ZM67.874 22.384C66.1673 22.384 64.61 21.9893 63.202 21.2C61.8153 20.4107 60.706 19.3333 59.874 17.968C59.0633 16.6027 58.658 15.0453 58.658 13.296C58.658 11.5467 59.0633 9.98933 59.874 8.624C60.706 7.25867 61.8153 6.18133 63.202 5.392C64.5887 4.60266 66.146 4.208 67.874 4.208C69.5807 4.208 71.1273 4.60266 72.514 5.392C73.9007 6.18133 74.9993 7.25867 75.81 8.624C76.642 9.968 77.058 11.5253 77.058 13.296C77.058 15.0453 76.642 16.6027 75.81 17.968C74.978 19.3333 73.8687 20.4107 72.482 21.2C71.0953 21.9893 69.5593 22.384 67.874 22.384ZM67.874 18.544C68.8127 18.544 69.634 18.32 70.338 17.872C71.0633 17.424 71.6287 16.8053 72.034 16.016C72.4607 15.2053 72.674 14.2987 72.674 13.296C72.674 12.272 72.4607 11.376 72.034 10.608C71.6287 9.81867 71.0633 9.2 70.338 8.752C69.634 8.28267 68.8127 8.048 67.874 8.048C66.914 8.048 66.0713 8.28267 65.346 8.752C64.6207 9.2 64.0447 9.81867 63.618 10.608C63.2127 11.376 63.01 12.272 63.01 13.296C63.01 14.2987 63.2127 15.2053 63.618 16.016C64.0447 16.8053 64.6207 17.424 65.346 17.872C66.0713 18.32 66.914 18.544 67.874 18.544Z" fill="#3563E9"/>
</svg>
